<mxfile host="app.diagrams.net" agent="Mozilla/5.0 (Windows NT 10.0; Win64; x64) AppleWebKit/537.36 (KHTML, like Gecko) Chrome/139.0.0.0 Safari/537.36 Edg/139.0.0.0" version="28.1.2">
  <diagram name="페이지-1" id="6QZ094_4j48qlc_lmOew">
    <mxGraphModel dx="2573" dy="2183" grid="1" gridSize="10" guides="1" tooltips="1" connect="1" arrows="1" fold="1" page="0" pageScale="1" pageWidth="827" pageHeight="1169" math="0" shadow="0">
      <root>
        <mxCell id="0" />
        <mxCell id="1" parent="0" />
        <mxCell id="l-PUMWSrgodT5HXm0ml5-37" value="" style="rounded=1;whiteSpace=wrap;html=1;" vertex="1" parent="1">
          <mxGeometry x="7450" y="1600" width="270" height="150" as="geometry" />
        </mxCell>
        <mxCell id="SNeiOOQ_WmqsozesyZYx-150" value="" style="rounded=0;whiteSpace=wrap;html=1;" parent="1" vertex="1">
          <mxGeometry x="950" y="-850" width="670" height="700" as="geometry" />
        </mxCell>
        <mxCell id="SNeiOOQ_WmqsozesyZYx-1" value="" style="rounded=0;whiteSpace=wrap;html=1;" parent="1" vertex="1">
          <mxGeometry x="460" y="-120" width="1020" height="810" as="geometry" />
        </mxCell>
        <mxCell id="SNeiOOQ_WmqsozesyZYx-25" style="edgeStyle=none;curved=1;rounded=0;orthogonalLoop=1;jettySize=auto;html=1;fontSize=12;startSize=8;endSize=8;" parent="1" source="SNeiOOQ_WmqsozesyZYx-5" target="SNeiOOQ_WmqsozesyZYx-15" edge="1">
          <mxGeometry relative="1" as="geometry" />
        </mxCell>
        <mxCell id="SNeiOOQ_WmqsozesyZYx-5" value="" style="rounded=1;whiteSpace=wrap;html=1;" parent="1" vertex="1">
          <mxGeometry x="500" y="-5" width="340" height="260" as="geometry" />
        </mxCell>
        <mxCell id="SNeiOOQ_WmqsozesyZYx-2" value="칼럼&#xa;액터, 로그인된 상태의 계정, 이미 올린 지역리뷰 n개&#xa;&#xa;&#xa;&#xa;&#xa;사용자는 칼럼을 올리기 위해 메인 홈페이지에서 칼럼 작성을 누른다.&#xa;작성 시, 지역을 선택한다.&#xa;칼럼 작성 시, 글을 올리는 제목과 내용을 작성한다.&#xa;리뷰 첨부 시, 지역 필터링된 자신이 작성한 리뷰를 일람한다.&#xa;일람한 리뷰 중, 첨부할 리뷰를 더한다.&#xa;칼럼 작성 시, 공개범위를 정한다.(팔로우한 사람, 비공개, 공개)&#xa;========================&#xa;&#xa;&#xa;&#xa;&#xa;액터 추가) 사업장 예약&#xa;사용자 액터, 사업장 액터, 지도로 첨부된 xy음식점 좌표, 사업장 정보(음식종류, 가격, 가게이름)&#xa;&#xa;&#xa;사업장 액터는 가게를 지도에 마킹한다. 마킹될 때, 다음 명세를 따른다.&#xa;)사업장 액터는 로그인된 사업장 계정으로 지도로 건물을 검색한다.&#xa;)검색된 장소에 가게를 설정한다.&#xa;사용자 액터는 지도에 올라온 사업장 액터에 의해 마킹된 사업장에 예약을 한다.&#xa;사용자 액터는 예약할 때 시간과 날짜를 설정한다.&#xa;사업장 액터는 들어온 예약요청에 시간과 날짜를 확인 후 예약을 받을지 말지 정한다.&#xa;1. 예약을 받았을 경우 =&#xa;사용자 액터는 문서함에 예약 완료 문자를 수령한다.&#xa;2. 예약을 취소당했을 경우 =&#xa;사용자 액터는 예약 취소 문자를 문서함에서 수령한다.&#xa;===================&#xa;&#xa;&#xa;&#xa;&#xa;&#xa;&#xa;&#xa;&#xa;음식점 검색&#xa;사용자 액터, 사용자가 바라는 상황(가족, 연인 등), 검색 위치(지역)&#xa;&#xa;&#xa;사용자는 지역과 사용자가 바라는 상황에 따라 필터링된 가게 위치를 검색한다.&#xa;검색(필터링)되는 음식점들을 xy에 따라 맵에 띄운다.&#xa;임의 음식점을 누를 때 다음 정보가 나온다&#xa;)음식점 이름, 음식점 종류, 예약 정보(사업자 액터에 의해 등록된 경우), 메뉴와 가격&#xa;사용자가 &#39;주변 관광지 탐색&#39; 버튼을 누를 시&#xa;)오른쪽 창에 코스 담기 창이 나온다.&#xa;)해당 음식점이 코스에 담겨진다.&#xa;)해당 음식점 xy를 통해 주변 관광지 후보지를 지도에 마킹한다.&#xa;)해당 후보지를 선택한 뒤 &#39;주변 관광지 탐색&#39;을 누를 시 위를 반복한다.&#xa;&#xa;&#xa;============================" style="text;html=1;align=center;verticalAlign=middle;whiteSpace=wrap;rounded=0;" parent="1" vertex="1">
          <mxGeometry x="-530" y="460" width="940" height="30" as="geometry" />
        </mxCell>
        <mxCell id="SNeiOOQ_WmqsozesyZYx-3" value="메인 홈페이지" style="rounded=1;whiteSpace=wrap;html=1;" parent="1" vertex="1">
          <mxGeometry x="490" y="-100" width="120" height="60" as="geometry" />
        </mxCell>
        <mxCell id="SNeiOOQ_WmqsozesyZYx-4" value="검색" style="rounded=1;whiteSpace=wrap;html=1;" parent="1" vertex="1">
          <mxGeometry x="530" y="20" width="110" height="80" as="geometry" />
        </mxCell>
        <mxCell id="SNeiOOQ_WmqsozesyZYx-6" value="카테고리" style="rounded=1;whiteSpace=wrap;html=1;" parent="1" vertex="1">
          <mxGeometry x="680" y="30" width="120" height="60" as="geometry" />
        </mxCell>
        <mxCell id="SNeiOOQ_WmqsozesyZYx-8" value="지역" style="rounded=1;whiteSpace=wrap;html=1;" parent="1" vertex="1">
          <mxGeometry x="540" y="150" width="120" height="60" as="geometry" />
        </mxCell>
        <mxCell id="SNeiOOQ_WmqsozesyZYx-9" value="상황&lt;div&gt;(연인, 가족, 친구)&lt;/div&gt;" style="rounded=1;whiteSpace=wrap;html=1;" parent="1" vertex="1">
          <mxGeometry x="680" y="150" width="120" height="60" as="geometry" />
        </mxCell>
        <mxCell id="SNeiOOQ_WmqsozesyZYx-11" style="edgeStyle=none;curved=1;rounded=0;orthogonalLoop=1;jettySize=auto;html=1;fontSize=12;startSize=8;endSize=8;entryX=0.021;entryY=0.941;entryDx=0;entryDy=0;entryPerimeter=0;" parent="1" source="SNeiOOQ_WmqsozesyZYx-10" target="SNeiOOQ_WmqsozesyZYx-5" edge="1">
          <mxGeometry relative="1" as="geometry" />
        </mxCell>
        <mxCell id="SNeiOOQ_WmqsozesyZYx-12" value="날씨에 따른 추천 반영" style="edgeLabel;html=1;align=center;verticalAlign=middle;resizable=0;points=[];fontSize=12;" parent="SNeiOOQ_WmqsozesyZYx-11" vertex="1" connectable="0">
          <mxGeometry x="-0.3114" y="2" relative="1" as="geometry">
            <mxPoint as="offset" />
          </mxGeometry>
        </mxCell>
        <mxCell id="SNeiOOQ_WmqsozesyZYx-10" value="날씨 API" style="ellipse;whiteSpace=wrap;html=1;" parent="1" vertex="1">
          <mxGeometry x="220" y="375" width="120" height="80" as="geometry" />
        </mxCell>
        <mxCell id="SNeiOOQ_WmqsozesyZYx-13" value="" style="rounded=1;whiteSpace=wrap;html=1;" parent="1" vertex="1">
          <mxGeometry x="1002.5" y="-430" width="497.5" height="230" as="geometry" />
        </mxCell>
        <mxCell id="SNeiOOQ_WmqsozesyZYx-14" value="칼럼 작성" style="rounded=1;whiteSpace=wrap;html=1;" parent="1" vertex="1">
          <mxGeometry x="1040" y="-290" width="120" height="60" as="geometry" />
        </mxCell>
        <mxCell id="SNeiOOQ_WmqsozesyZYx-15" value="" style="rounded=1;whiteSpace=wrap;html=1;" parent="1" vertex="1">
          <mxGeometry x="460" y="830" width="1010" height="650" as="geometry" />
        </mxCell>
        <mxCell id="SNeiOOQ_WmqsozesyZYx-16" value="검색" style="rounded=1;whiteSpace=wrap;html=1;" parent="1" vertex="1">
          <mxGeometry x="540" y="870" width="110" height="80" as="geometry" />
        </mxCell>
        <mxCell id="SNeiOOQ_WmqsozesyZYx-17" value="" style="rounded=1;whiteSpace=wrap;html=1;" parent="1" vertex="1">
          <mxGeometry x="520" y="980" width="345" height="250" as="geometry" />
        </mxCell>
        <mxCell id="SNeiOOQ_WmqsozesyZYx-18" value="지도" style="rounded=1;whiteSpace=wrap;html=1;" parent="1" vertex="1">
          <mxGeometry x="540" y="1000" width="120" height="60" as="geometry" />
        </mxCell>
        <mxCell id="SNeiOOQ_WmqsozesyZYx-19" value="사업장 액터가&lt;div&gt;추가한 업장&lt;/div&gt;" style="rounded=1;whiteSpace=wrap;html=1;" parent="1" vertex="1">
          <mxGeometry x="710" y="1010" width="120" height="60" as="geometry" />
        </mxCell>
        <mxCell id="SNeiOOQ_WmqsozesyZYx-20" value="카카오 맵 등&amp;nbsp;&lt;div&gt;API 검색결과&lt;/div&gt;" style="rounded=1;whiteSpace=wrap;html=1;" parent="1" vertex="1">
          <mxGeometry x="1480" y="870" width="120" height="60" as="geometry" />
        </mxCell>
        <mxCell id="SNeiOOQ_WmqsozesyZYx-22" style="edgeStyle=none;curved=1;rounded=0;orthogonalLoop=1;jettySize=auto;html=1;entryX=0.978;entryY=0.068;entryDx=0;entryDy=0;entryPerimeter=0;fontSize=12;startSize=8;endSize=8;" parent="1" source="SNeiOOQ_WmqsozesyZYx-20" target="SNeiOOQ_WmqsozesyZYx-17" edge="1">
          <mxGeometry relative="1" as="geometry" />
        </mxCell>
        <mxCell id="SNeiOOQ_WmqsozesyZYx-176" style="edgeStyle=none;curved=1;rounded=0;orthogonalLoop=1;jettySize=auto;html=1;fontSize=12;startSize=8;endSize=8;" parent="1" source="SNeiOOQ_WmqsozesyZYx-26" target="SNeiOOQ_WmqsozesyZYx-170" edge="1">
          <mxGeometry relative="1" as="geometry" />
        </mxCell>
        <mxCell id="SNeiOOQ_WmqsozesyZYx-26" value="" style="rounded=1;whiteSpace=wrap;html=1;" parent="1" vertex="1">
          <mxGeometry x="995" y="980" width="365" height="230" as="geometry" />
        </mxCell>
        <mxCell id="SNeiOOQ_WmqsozesyZYx-27" value="주변 관광지 탐색" style="rounded=1;whiteSpace=wrap;html=1;" parent="1" vertex="1">
          <mxGeometry x="1010" y="990" width="120" height="60" as="geometry" />
        </mxCell>
        <mxCell id="SNeiOOQ_WmqsozesyZYx-28" style="edgeStyle=none;curved=1;rounded=0;orthogonalLoop=1;jettySize=auto;html=1;entryX=0.999;entryY=0.108;entryDx=0;entryDy=0;entryPerimeter=0;fontSize=12;startSize=8;endSize=8;" parent="1" source="SNeiOOQ_WmqsozesyZYx-20" target="SNeiOOQ_WmqsozesyZYx-26" edge="1">
          <mxGeometry relative="1" as="geometry" />
        </mxCell>
        <mxCell id="SNeiOOQ_WmqsozesyZYx-30" value="거리정보" style="rounded=1;whiteSpace=wrap;html=1;" parent="1" vertex="1">
          <mxGeometry x="1200" y="1000" width="120" height="60" as="geometry" />
        </mxCell>
        <mxCell id="SNeiOOQ_WmqsozesyZYx-31" value="소요시간" style="rounded=1;whiteSpace=wrap;html=1;" parent="1" vertex="1">
          <mxGeometry x="1020" y="1100" width="120" height="60" as="geometry" />
        </mxCell>
        <mxCell id="SNeiOOQ_WmqsozesyZYx-32" value="공개범위" style="rounded=1;whiteSpace=wrap;html=1;" parent="1" vertex="1">
          <mxGeometry x="1360" y="-310" width="120" height="60" as="geometry" />
        </mxCell>
        <mxCell id="SNeiOOQ_WmqsozesyZYx-121" style="edgeStyle=none;curved=1;rounded=0;orthogonalLoop=1;jettySize=auto;html=1;fontSize=12;startSize=8;endSize=8;" parent="1" source="SNeiOOQ_WmqsozesyZYx-33" target="SNeiOOQ_WmqsozesyZYx-114" edge="1">
          <mxGeometry relative="1" as="geometry" />
        </mxCell>
        <mxCell id="SNeiOOQ_WmqsozesyZYx-123" style="edgeStyle=none;curved=1;rounded=0;orthogonalLoop=1;jettySize=auto;html=1;fontSize=12;startSize=8;endSize=8;" parent="1" source="SNeiOOQ_WmqsozesyZYx-33" target="SNeiOOQ_WmqsozesyZYx-110" edge="1">
          <mxGeometry relative="1" as="geometry" />
        </mxCell>
        <mxCell id="SNeiOOQ_WmqsozesyZYx-33" value="사용자" style="shape=umlActor;verticalLabelPosition=bottom;verticalAlign=top;html=1;outlineConnect=0;" parent="1" vertex="1">
          <mxGeometry x="1590" y="1125" width="30" height="60" as="geometry" />
        </mxCell>
        <mxCell id="SNeiOOQ_WmqsozesyZYx-35" value="" style="rounded=1;whiteSpace=wrap;html=1;" parent="1" vertex="1">
          <mxGeometry x="1630" y="-110" width="920" height="530" as="geometry" />
        </mxCell>
        <mxCell id="SNeiOOQ_WmqsozesyZYx-36" value="가게 상세정보" style="rounded=1;whiteSpace=wrap;html=1;" parent="1" vertex="1">
          <mxGeometry x="1700" y="-50" width="120" height="60" as="geometry" />
        </mxCell>
        <mxCell id="SNeiOOQ_WmqsozesyZYx-67" style="edgeStyle=none;curved=1;rounded=0;orthogonalLoop=1;jettySize=auto;html=1;fontSize=12;startSize=8;endSize=8;" parent="1" source="SNeiOOQ_WmqsozesyZYx-37" target="SNeiOOQ_WmqsozesyZYx-13" edge="1">
          <mxGeometry relative="1" as="geometry" />
        </mxCell>
        <mxCell id="SNeiOOQ_WmqsozesyZYx-37" value="" style="rounded=1;whiteSpace=wrap;html=1;" parent="1" vertex="1">
          <mxGeometry x="1700" y="50" width="350" height="260" as="geometry" />
        </mxCell>
        <mxCell id="SNeiOOQ_WmqsozesyZYx-38" value="리뷰" style="rounded=1;whiteSpace=wrap;html=1;" parent="1" vertex="1">
          <mxGeometry x="1730" y="60" width="120" height="60" as="geometry" />
        </mxCell>
        <mxCell id="SNeiOOQ_WmqsozesyZYx-39" value="별점" style="rounded=1;whiteSpace=wrap;html=1;" parent="1" vertex="1">
          <mxGeometry x="1900" y="70" width="120" height="60" as="geometry" />
        </mxCell>
        <mxCell id="SNeiOOQ_WmqsozesyZYx-43" style="edgeStyle=none;curved=1;rounded=0;orthogonalLoop=1;jettySize=auto;html=1;fontSize=12;startSize=8;endSize=8;" parent="1" source="SNeiOOQ_WmqsozesyZYx-40" target="SNeiOOQ_WmqsozesyZYx-9" edge="1">
          <mxGeometry relative="1" as="geometry" />
        </mxCell>
        <mxCell id="SNeiOOQ_WmqsozesyZYx-40" value="상황&lt;div&gt;(연인, 가족, 친구)&lt;/div&gt;" style="rounded=1;whiteSpace=wrap;html=1;" parent="1" vertex="1">
          <mxGeometry x="1730" y="200" width="120" height="60" as="geometry" />
        </mxCell>
        <mxCell id="SNeiOOQ_WmqsozesyZYx-64" style="edgeStyle=none;curved=1;rounded=0;orthogonalLoop=1;jettySize=auto;html=1;fontSize=12;startSize=8;endSize=8;" parent="1" source="SNeiOOQ_WmqsozesyZYx-41" target="SNeiOOQ_WmqsozesyZYx-13" edge="1">
          <mxGeometry relative="1" as="geometry" />
        </mxCell>
        <mxCell id="SNeiOOQ_WmqsozesyZYx-41" value="" style="rounded=1;whiteSpace=wrap;html=1;" parent="1" vertex="1">
          <mxGeometry x="2170" y="60" width="330" height="260" as="geometry" />
        </mxCell>
        <mxCell id="SNeiOOQ_WmqsozesyZYx-42" value="가게 이름" style="rounded=1;whiteSpace=wrap;html=1;" parent="1" vertex="1">
          <mxGeometry x="2200" y="100" width="120" height="60" as="geometry" />
        </mxCell>
        <mxCell id="SNeiOOQ_WmqsozesyZYx-44" value="메뉴" style="rounded=1;whiteSpace=wrap;html=1;" parent="1" vertex="1">
          <mxGeometry x="2340" y="100" width="120" height="60" as="geometry" />
        </mxCell>
        <mxCell id="SNeiOOQ_WmqsozesyZYx-45" value="가격" style="rounded=1;whiteSpace=wrap;html=1;" parent="1" vertex="1">
          <mxGeometry x="2200" y="220" width="120" height="60" as="geometry" />
        </mxCell>
        <mxCell id="SNeiOOQ_WmqsozesyZYx-47" value="" style="rounded=1;whiteSpace=wrap;html=1;" parent="1" vertex="1">
          <mxGeometry x="3010" y="490" width="410" height="275" as="geometry" />
        </mxCell>
        <mxCell id="SNeiOOQ_WmqsozesyZYx-52" value="" style="rounded=1;whiteSpace=wrap;html=1;" parent="1" vertex="1">
          <mxGeometry x="3030" y="590" width="370" height="130" as="geometry" />
        </mxCell>
        <mxCell id="SNeiOOQ_WmqsozesyZYx-55" style="edgeStyle=none;curved=1;rounded=0;orthogonalLoop=1;jettySize=auto;html=1;fontSize=12;startSize=8;endSize=8;" parent="1" source="SNeiOOQ_WmqsozesyZYx-48" target="SNeiOOQ_WmqsozesyZYx-50" edge="1">
          <mxGeometry relative="1" as="geometry" />
        </mxCell>
        <mxCell id="SNeiOOQ_WmqsozesyZYx-56" style="edgeStyle=none;curved=1;rounded=0;orthogonalLoop=1;jettySize=auto;html=1;fontSize=12;startSize=8;endSize=8;" parent="1" source="SNeiOOQ_WmqsozesyZYx-48" target="SNeiOOQ_WmqsozesyZYx-51" edge="1">
          <mxGeometry relative="1" as="geometry" />
        </mxCell>
        <mxCell id="SNeiOOQ_WmqsozesyZYx-60" style="edgeStyle=none;curved=1;rounded=0;orthogonalLoop=1;jettySize=auto;html=1;fontSize=12;startSize=8;endSize=8;" parent="1" source="SNeiOOQ_WmqsozesyZYx-48" target="SNeiOOQ_WmqsozesyZYx-58" edge="1">
          <mxGeometry relative="1" as="geometry" />
        </mxCell>
        <mxCell id="SNeiOOQ_WmqsozesyZYx-48" value="예약 받기" style="rounded=1;whiteSpace=wrap;html=1;" parent="1" vertex="1">
          <mxGeometry x="3040" y="505" width="120" height="60" as="geometry" />
        </mxCell>
        <mxCell id="SNeiOOQ_WmqsozesyZYx-49" value="사업자" style="shape=umlActor;verticalLabelPosition=bottom;verticalAlign=top;html=1;outlineConnect=0;" parent="1" vertex="1">
          <mxGeometry x="3530" y="190" width="30" height="60" as="geometry" />
        </mxCell>
        <mxCell id="SNeiOOQ_WmqsozesyZYx-50" value="시간 날짜" style="rounded=1;whiteSpace=wrap;html=1;" parent="1" vertex="1">
          <mxGeometry x="3070" y="630" width="120" height="60" as="geometry" />
        </mxCell>
        <mxCell id="SNeiOOQ_WmqsozesyZYx-51" value="인원수" style="rounded=1;whiteSpace=wrap;html=1;" parent="1" vertex="1">
          <mxGeometry x="3230" y="630" width="120" height="60" as="geometry" />
        </mxCell>
        <mxCell id="SNeiOOQ_WmqsozesyZYx-53" value="승낙 및 거절" style="rounded=1;whiteSpace=wrap;html=1;" parent="1" vertex="1">
          <mxGeometry x="3230" y="505" width="120" height="60" as="geometry" />
        </mxCell>
        <mxCell id="SNeiOOQ_WmqsozesyZYx-59" style="edgeStyle=none;curved=1;rounded=0;orthogonalLoop=1;jettySize=auto;html=1;fontSize=12;startSize=8;endSize=8;" parent="1" source="SNeiOOQ_WmqsozesyZYx-58" target="SNeiOOQ_WmqsozesyZYx-48" edge="1">
          <mxGeometry relative="1" as="geometry" />
        </mxCell>
        <mxCell id="SNeiOOQ_WmqsozesyZYx-58" value="문서함" style="rounded=0;whiteSpace=wrap;html=1;" parent="1" vertex="1">
          <mxGeometry x="1220" y="560" width="140" height="70" as="geometry" />
        </mxCell>
        <mxCell id="SNeiOOQ_WmqsozesyZYx-63" value="지역" style="rounded=1;whiteSpace=wrap;html=1;" parent="1" vertex="1">
          <mxGeometry x="2350" y="220" width="120" height="60" as="geometry" />
        </mxCell>
        <mxCell id="SNeiOOQ_WmqsozesyZYx-65" value="작성한 리뷰" style="rounded=1;whiteSpace=wrap;html=1;" parent="1" vertex="1">
          <mxGeometry x="1230" y="-400" width="120" height="60" as="geometry" />
        </mxCell>
        <mxCell id="SNeiOOQ_WmqsozesyZYx-105" style="edgeStyle=none;curved=1;rounded=0;orthogonalLoop=1;jettySize=auto;html=1;fontSize=12;startSize=8;endSize=8;" parent="1" source="SNeiOOQ_WmqsozesyZYx-68" target="SNeiOOQ_WmqsozesyZYx-81" edge="1">
          <mxGeometry relative="1" as="geometry" />
        </mxCell>
        <mxCell id="SNeiOOQ_WmqsozesyZYx-68" value="" style="rounded=1;whiteSpace=wrap;html=1;" parent="1" vertex="1">
          <mxGeometry x="2560" y="-370" width="360" height="220" as="geometry" />
        </mxCell>
        <mxCell id="SNeiOOQ_WmqsozesyZYx-69" value="사업장 등록" style="rounded=1;whiteSpace=wrap;html=1;" parent="1" vertex="1">
          <mxGeometry x="2580" y="-350" width="120" height="60" as="geometry" />
        </mxCell>
        <mxCell id="SNeiOOQ_WmqsozesyZYx-70" value="" style="rounded=1;whiteSpace=wrap;html=1;" parent="1" vertex="1">
          <mxGeometry x="2730" y="-360" width="170" height="180" as="geometry" />
        </mxCell>
        <mxCell id="SNeiOOQ_WmqsozesyZYx-71" value="사업자등록번호" style="rounded=1;whiteSpace=wrap;html=1;" parent="1" vertex="1">
          <mxGeometry x="2760" y="-350" width="120" height="60" as="geometry" />
        </mxCell>
        <mxCell id="SNeiOOQ_WmqsozesyZYx-72" value="가게 정보" style="rounded=1;whiteSpace=wrap;html=1;" parent="1" vertex="1">
          <mxGeometry x="2750" y="-260" width="120" height="60" as="geometry" />
        </mxCell>
        <mxCell id="SNeiOOQ_WmqsozesyZYx-73" value="" style="rounded=1;whiteSpace=wrap;html=1;" parent="1" vertex="1">
          <mxGeometry x="3050" y="-260" width="440" height="300" as="geometry" />
        </mxCell>
        <mxCell id="SNeiOOQ_WmqsozesyZYx-74" value="사업자&lt;div&gt;회원가입&lt;/div&gt;" style="rounded=1;whiteSpace=wrap;html=1;" parent="1" vertex="1">
          <mxGeometry x="3080" y="-60" width="120" height="60" as="geometry" />
        </mxCell>
        <mxCell id="SNeiOOQ_WmqsozesyZYx-75" value="아이디&lt;div&gt;패스워드&lt;/div&gt;" style="rounded=1;whiteSpace=wrap;html=1;" parent="1" vertex="1">
          <mxGeometry x="3150" y="-230" width="120" height="60" as="geometry" />
        </mxCell>
        <mxCell id="SNeiOOQ_WmqsozesyZYx-77" value="생년월일&lt;div&gt;이름&lt;/div&gt;" style="rounded=1;whiteSpace=wrap;html=1;" parent="1" vertex="1">
          <mxGeometry x="3280" y="-65" width="120" height="60" as="geometry" />
        </mxCell>
        <mxCell id="SNeiOOQ_WmqsozesyZYx-78" value="전화번호" style="rounded=1;whiteSpace=wrap;html=1;" parent="1" vertex="1">
          <mxGeometry x="3290" y="-230" width="120" height="60" as="geometry" />
        </mxCell>
        <mxCell id="SNeiOOQ_WmqsozesyZYx-79" value="주소" style="rounded=1;whiteSpace=wrap;html=1;" parent="1" vertex="1">
          <mxGeometry x="3280" y="-140" width="120" height="60" as="geometry" />
        </mxCell>
        <mxCell id="SNeiOOQ_WmqsozesyZYx-83" style="edgeStyle=none;curved=1;rounded=0;orthogonalLoop=1;jettySize=auto;html=1;fontSize=12;startSize=8;endSize=8;" parent="1" source="SNeiOOQ_WmqsozesyZYx-81" target="SNeiOOQ_WmqsozesyZYx-47" edge="1">
          <mxGeometry relative="1" as="geometry" />
        </mxCell>
        <mxCell id="SNeiOOQ_WmqsozesyZYx-167" style="edgeStyle=none;curved=1;rounded=0;orthogonalLoop=1;jettySize=auto;html=1;fontSize=12;startSize=8;endSize=8;" parent="1" source="SNeiOOQ_WmqsozesyZYx-81" target="SNeiOOQ_WmqsozesyZYx-19" edge="1">
          <mxGeometry relative="1" as="geometry" />
        </mxCell>
        <mxCell id="SNeiOOQ_WmqsozesyZYx-81" value="등록" style="rounded=1;whiteSpace=wrap;html=1;" parent="1" vertex="1">
          <mxGeometry x="2350" y="-60" width="120" height="60" as="geometry" />
        </mxCell>
        <mxCell id="SNeiOOQ_WmqsozesyZYx-97" style="edgeStyle=none;curved=1;rounded=0;orthogonalLoop=1;jettySize=auto;html=1;fontSize=12;startSize=8;endSize=8;" parent="1" source="SNeiOOQ_WmqsozesyZYx-88" target="SNeiOOQ_WmqsozesyZYx-47" edge="1">
          <mxGeometry relative="1" as="geometry" />
        </mxCell>
        <mxCell id="SNeiOOQ_WmqsozesyZYx-88" value="" style="rounded=1;whiteSpace=wrap;html=1;" parent="1" vertex="1">
          <mxGeometry x="3030" y="120" width="350" height="270" as="geometry" />
        </mxCell>
        <mxCell id="SNeiOOQ_WmqsozesyZYx-103" style="edgeStyle=none;curved=1;rounded=0;orthogonalLoop=1;jettySize=auto;html=1;fontSize=12;startSize=8;endSize=8;" parent="1" source="SNeiOOQ_WmqsozesyZYx-89" target="SNeiOOQ_WmqsozesyZYx-47" edge="1">
          <mxGeometry relative="1" as="geometry" />
        </mxCell>
        <mxCell id="SNeiOOQ_WmqsozesyZYx-89" value="로그인" style="rounded=1;whiteSpace=wrap;html=1;" parent="1" vertex="1">
          <mxGeometry x="3050" y="160" width="120" height="60" as="geometry" />
        </mxCell>
        <mxCell id="SNeiOOQ_WmqsozesyZYx-90" value="아이디" style="rounded=1;whiteSpace=wrap;html=1;" parent="1" vertex="1">
          <mxGeometry x="3060" y="270" width="120" height="60" as="geometry" />
        </mxCell>
        <mxCell id="SNeiOOQ_WmqsozesyZYx-91" value="패스워드" style="rounded=1;whiteSpace=wrap;html=1;" parent="1" vertex="1">
          <mxGeometry x="3220" y="260" width="120" height="60" as="geometry" />
        </mxCell>
        <mxCell id="SNeiOOQ_WmqsozesyZYx-96" style="edgeStyle=none;curved=1;rounded=0;orthogonalLoop=1;jettySize=auto;html=1;fontSize=12;startSize=8;endSize=8;" parent="1" source="SNeiOOQ_WmqsozesyZYx-94" target="SNeiOOQ_WmqsozesyZYx-88" edge="1">
          <mxGeometry relative="1" as="geometry" />
        </mxCell>
        <mxCell id="SNeiOOQ_WmqsozesyZYx-107" style="edgeStyle=none;curved=1;rounded=0;orthogonalLoop=1;jettySize=auto;html=1;fontSize=12;startSize=8;endSize=8;" parent="1" source="SNeiOOQ_WmqsozesyZYx-94" target="SNeiOOQ_WmqsozesyZYx-10" edge="1">
          <mxGeometry relative="1" as="geometry" />
        </mxCell>
        <mxCell id="SNeiOOQ_WmqsozesyZYx-109" style="edgeStyle=none;curved=1;rounded=0;orthogonalLoop=1;jettySize=auto;html=1;fontSize=12;startSize=8;endSize=8;" parent="1" source="SNeiOOQ_WmqsozesyZYx-94" target="SNeiOOQ_WmqsozesyZYx-20" edge="1">
          <mxGeometry relative="1" as="geometry" />
        </mxCell>
        <mxCell id="SNeiOOQ_WmqsozesyZYx-124" style="edgeStyle=none;curved=1;rounded=0;orthogonalLoop=1;jettySize=auto;html=1;fontSize=12;startSize=8;endSize=8;" parent="1" source="SNeiOOQ_WmqsozesyZYx-94" target="SNeiOOQ_WmqsozesyZYx-110" edge="1">
          <mxGeometry relative="1" as="geometry" />
        </mxCell>
        <mxCell id="SNeiOOQ_WmqsozesyZYx-142" style="edgeStyle=none;curved=1;rounded=0;orthogonalLoop=1;jettySize=auto;html=1;fontSize=12;startSize=8;endSize=8;" parent="1" source="SNeiOOQ_WmqsozesyZYx-94" target="SNeiOOQ_WmqsozesyZYx-138" edge="1">
          <mxGeometry relative="1" as="geometry" />
        </mxCell>
        <mxCell id="SNeiOOQ_WmqsozesyZYx-94" value="서버" style="rounded=0;whiteSpace=wrap;html=1;" parent="1" vertex="1">
          <mxGeometry x="2010" y="730" width="390" height="365" as="geometry" />
        </mxCell>
        <mxCell id="SNeiOOQ_WmqsozesyZYx-95" style="edgeStyle=none;curved=1;rounded=0;orthogonalLoop=1;jettySize=auto;html=1;fontSize=12;startSize=8;endSize=8;" parent="1" source="SNeiOOQ_WmqsozesyZYx-74" edge="1">
          <mxGeometry relative="1" as="geometry">
            <mxPoint x="2400" y="740" as="targetPoint" />
          </mxGeometry>
        </mxCell>
        <mxCell id="SNeiOOQ_WmqsozesyZYx-80" style="edgeStyle=none;curved=1;rounded=0;orthogonalLoop=1;jettySize=auto;html=1;fontSize=12;startSize=8;endSize=8;" parent="1" source="SNeiOOQ_WmqsozesyZYx-49" target="SNeiOOQ_WmqsozesyZYx-74" edge="1">
          <mxGeometry relative="1" as="geometry" />
        </mxCell>
        <mxCell id="SNeiOOQ_WmqsozesyZYx-104" style="edgeStyle=none;curved=1;rounded=0;orthogonalLoop=1;jettySize=auto;html=1;entryX=0.405;entryY=0.982;entryDx=0;entryDy=0;entryPerimeter=0;fontSize=12;startSize=8;endSize=8;" parent="1" source="SNeiOOQ_WmqsozesyZYx-89" target="SNeiOOQ_WmqsozesyZYx-68" edge="1">
          <mxGeometry relative="1" as="geometry" />
        </mxCell>
        <mxCell id="SNeiOOQ_WmqsozesyZYx-106" style="edgeStyle=none;curved=1;rounded=0;orthogonalLoop=1;jettySize=auto;html=1;entryX=0.99;entryY=0.458;entryDx=0;entryDy=0;entryPerimeter=0;fontSize=12;startSize=8;endSize=8;" parent="1" source="SNeiOOQ_WmqsozesyZYx-49" target="SNeiOOQ_WmqsozesyZYx-88" edge="1">
          <mxGeometry relative="1" as="geometry" />
        </mxCell>
        <mxCell id="SNeiOOQ_WmqsozesyZYx-125" style="edgeStyle=none;curved=1;rounded=0;orthogonalLoop=1;jettySize=auto;html=1;fontSize=12;startSize=8;endSize=8;exitX=0.009;exitY=0.143;exitDx=0;exitDy=0;exitPerimeter=0;" parent="1" source="SNeiOOQ_WmqsozesyZYx-110" target="SNeiOOQ_WmqsozesyZYx-1" edge="1">
          <mxGeometry relative="1" as="geometry" />
        </mxCell>
        <mxCell id="SNeiOOQ_WmqsozesyZYx-110" value="" style="rounded=1;whiteSpace=wrap;html=1;" parent="1" vertex="1">
          <mxGeometry x="2030" y="1195" width="350" height="270" as="geometry" />
        </mxCell>
        <mxCell id="SNeiOOQ_WmqsozesyZYx-111" value="로그인" style="rounded=1;whiteSpace=wrap;html=1;" parent="1" vertex="1">
          <mxGeometry x="2050" y="1235" width="120" height="60" as="geometry" />
        </mxCell>
        <mxCell id="SNeiOOQ_WmqsozesyZYx-112" value="아이디" style="rounded=1;whiteSpace=wrap;html=1;" parent="1" vertex="1">
          <mxGeometry x="2060" y="1345" width="120" height="60" as="geometry" />
        </mxCell>
        <mxCell id="SNeiOOQ_WmqsozesyZYx-113" value="패스워드" style="rounded=1;whiteSpace=wrap;html=1;" parent="1" vertex="1">
          <mxGeometry x="2220" y="1335" width="120" height="60" as="geometry" />
        </mxCell>
        <mxCell id="SNeiOOQ_WmqsozesyZYx-122" style="edgeStyle=none;curved=1;rounded=0;orthogonalLoop=1;jettySize=auto;html=1;fontSize=12;startSize=8;endSize=8;" parent="1" source="SNeiOOQ_WmqsozesyZYx-114" target="SNeiOOQ_WmqsozesyZYx-94" edge="1">
          <mxGeometry relative="1" as="geometry" />
        </mxCell>
        <mxCell id="SNeiOOQ_WmqsozesyZYx-114" value="" style="rounded=1;whiteSpace=wrap;html=1;" parent="1" vertex="1">
          <mxGeometry x="1500" y="1270" width="440" height="300" as="geometry" />
        </mxCell>
        <mxCell id="SNeiOOQ_WmqsozesyZYx-115" value="사용자&lt;div&gt;회원가입&lt;/div&gt;" style="rounded=1;whiteSpace=wrap;html=1;" parent="1" vertex="1">
          <mxGeometry x="1530" y="1470" width="120" height="60" as="geometry" />
        </mxCell>
        <mxCell id="SNeiOOQ_WmqsozesyZYx-116" value="아이디&lt;div&gt;패스워드&lt;/div&gt;" style="rounded=1;whiteSpace=wrap;html=1;" parent="1" vertex="1">
          <mxGeometry x="1600" y="1300" width="120" height="60" as="geometry" />
        </mxCell>
        <mxCell id="SNeiOOQ_WmqsozesyZYx-117" value="생년월일&lt;div&gt;이름&lt;/div&gt;" style="rounded=1;whiteSpace=wrap;html=1;" parent="1" vertex="1">
          <mxGeometry x="1730" y="1465" width="120" height="60" as="geometry" />
        </mxCell>
        <mxCell id="SNeiOOQ_WmqsozesyZYx-118" value="전화번호" style="rounded=1;whiteSpace=wrap;html=1;" parent="1" vertex="1">
          <mxGeometry x="1740" y="1300" width="120" height="60" as="geometry" />
        </mxCell>
        <mxCell id="SNeiOOQ_WmqsozesyZYx-119" value="주소" style="rounded=1;whiteSpace=wrap;html=1;" parent="1" vertex="1">
          <mxGeometry x="1730" y="1390" width="120" height="60" as="geometry" />
        </mxCell>
        <mxCell id="SNeiOOQ_WmqsozesyZYx-126" value="" style="rounded=1;whiteSpace=wrap;html=1;" parent="1" vertex="1">
          <mxGeometry x="2520" y="825" width="410" height="275" as="geometry" />
        </mxCell>
        <mxCell id="SNeiOOQ_WmqsozesyZYx-127" value="" style="rounded=1;whiteSpace=wrap;html=1;" parent="1" vertex="1">
          <mxGeometry x="2540" y="925" width="370" height="130" as="geometry" />
        </mxCell>
        <mxCell id="SNeiOOQ_WmqsozesyZYx-128" style="edgeStyle=none;curved=1;rounded=0;orthogonalLoop=1;jettySize=auto;html=1;fontSize=12;startSize=8;endSize=8;" parent="1" source="SNeiOOQ_WmqsozesyZYx-130" target="SNeiOOQ_WmqsozesyZYx-131" edge="1">
          <mxGeometry relative="1" as="geometry" />
        </mxCell>
        <mxCell id="SNeiOOQ_WmqsozesyZYx-129" style="edgeStyle=none;curved=1;rounded=0;orthogonalLoop=1;jettySize=auto;html=1;fontSize=12;startSize=8;endSize=8;" parent="1" source="SNeiOOQ_WmqsozesyZYx-130" target="SNeiOOQ_WmqsozesyZYx-132" edge="1">
          <mxGeometry relative="1" as="geometry" />
        </mxCell>
        <mxCell id="SNeiOOQ_WmqsozesyZYx-136" style="edgeStyle=none;curved=1;rounded=0;orthogonalLoop=1;jettySize=auto;html=1;fontSize=12;startSize=8;endSize=8;" parent="1" source="SNeiOOQ_WmqsozesyZYx-130" target="SNeiOOQ_WmqsozesyZYx-48" edge="1">
          <mxGeometry relative="1" as="geometry" />
        </mxCell>
        <mxCell id="SNeiOOQ_WmqsozesyZYx-130" value="예약 하기" style="rounded=1;whiteSpace=wrap;html=1;" parent="1" vertex="1">
          <mxGeometry x="2550" y="840" width="120" height="60" as="geometry" />
        </mxCell>
        <mxCell id="SNeiOOQ_WmqsozesyZYx-131" value="시간 날짜" style="rounded=1;whiteSpace=wrap;html=1;" parent="1" vertex="1">
          <mxGeometry x="2580" y="965" width="120" height="60" as="geometry" />
        </mxCell>
        <mxCell id="SNeiOOQ_WmqsozesyZYx-132" value="인원수" style="rounded=1;whiteSpace=wrap;html=1;" parent="1" vertex="1">
          <mxGeometry x="2740" y="965" width="120" height="60" as="geometry" />
        </mxCell>
        <mxCell id="SNeiOOQ_WmqsozesyZYx-135" style="edgeStyle=none;curved=1;rounded=0;orthogonalLoop=1;jettySize=auto;html=1;fontSize=12;startSize=8;endSize=8;" parent="1" source="SNeiOOQ_WmqsozesyZYx-134" target="SNeiOOQ_WmqsozesyZYx-130" edge="1">
          <mxGeometry relative="1" as="geometry" />
        </mxCell>
        <mxCell id="SNeiOOQ_WmqsozesyZYx-134" value="예약 정하기" style="rounded=1;whiteSpace=wrap;html=1;" parent="1" vertex="1">
          <mxGeometry x="2340" y="340" width="120" height="60" as="geometry" />
        </mxCell>
        <mxCell id="SNeiOOQ_WmqsozesyZYx-138" value="" style="rounded=1;whiteSpace=wrap;html=1;" parent="1" vertex="1">
          <mxGeometry x="800" y="330" width="300" height="225" as="geometry" />
        </mxCell>
        <mxCell id="SNeiOOQ_WmqsozesyZYx-139" value="추천지역 랭킹" style="rounded=1;whiteSpace=wrap;html=1;" parent="1" vertex="1">
          <mxGeometry x="815" y="345" width="120" height="60" as="geometry" />
        </mxCell>
        <mxCell id="SNeiOOQ_WmqsozesyZYx-140" value="지역별" style="rounded=1;whiteSpace=wrap;html=1;" parent="1" vertex="1">
          <mxGeometry x="960" y="345" width="120" height="60" as="geometry" />
        </mxCell>
        <mxCell id="SNeiOOQ_WmqsozesyZYx-141" value="종류별" style="rounded=1;whiteSpace=wrap;html=1;" parent="1" vertex="1">
          <mxGeometry x="820" y="455" width="120" height="60" as="geometry" />
        </mxCell>
        <mxCell id="SNeiOOQ_WmqsozesyZYx-143" value="칼럼 미리보기" style="rounded=1;whiteSpace=wrap;html=1;" parent="1" vertex="1">
          <mxGeometry x="960" y="455" width="120" height="60" as="geometry" />
        </mxCell>
        <mxCell id="SNeiOOQ_WmqsozesyZYx-144" value="지역" style="rounded=1;whiteSpace=wrap;html=1;" parent="1" vertex="1">
          <mxGeometry x="1360" y="-400" width="120" height="60" as="geometry" />
        </mxCell>
        <mxCell id="SNeiOOQ_WmqsozesyZYx-145" value="" style="rounded=1;whiteSpace=wrap;html=1;" parent="1" vertex="1">
          <mxGeometry x="995" y="-740" width="550" height="260" as="geometry" />
        </mxCell>
        <mxCell id="SNeiOOQ_WmqsozesyZYx-146" value="칼럼 열람" style="rounded=1;whiteSpace=wrap;html=1;" parent="1" vertex="1">
          <mxGeometry x="1025" y="-590" width="120" height="60" as="geometry" />
        </mxCell>
        <mxCell id="SNeiOOQ_WmqsozesyZYx-147" value="댓글" style="rounded=1;whiteSpace=wrap;html=1;" parent="1" vertex="1">
          <mxGeometry x="1340" y="-600" width="120" height="60" as="geometry" />
        </mxCell>
        <mxCell id="SNeiOOQ_WmqsozesyZYx-148" value="좋아요" style="rounded=1;whiteSpace=wrap;html=1;" parent="1" vertex="1">
          <mxGeometry x="1340" y="-710" width="120" height="60" as="geometry" />
        </mxCell>
        <mxCell id="SNeiOOQ_WmqsozesyZYx-149" value="칼럼 내용" style="rounded=1;whiteSpace=wrap;html=1;" parent="1" vertex="1">
          <mxGeometry x="1185" y="-710" width="120" height="60" as="geometry" />
        </mxCell>
        <mxCell id="SNeiOOQ_WmqsozesyZYx-151" value="칼럼" style="rounded=0;whiteSpace=wrap;html=1;" parent="1" vertex="1">
          <mxGeometry x="980" y="-830" width="120" height="60" as="geometry" />
        </mxCell>
        <mxCell id="SNeiOOQ_WmqsozesyZYx-152" value="" style="rounded=1;whiteSpace=wrap;html=1;" parent="1" vertex="1">
          <mxGeometry x="960" y="20" width="410" height="230" as="geometry" />
        </mxCell>
        <mxCell id="SNeiOOQ_WmqsozesyZYx-163" style="edgeStyle=none;curved=1;rounded=0;orthogonalLoop=1;jettySize=auto;html=1;fontSize=12;startSize=8;endSize=8;" parent="1" source="SNeiOOQ_WmqsozesyZYx-153" target="SNeiOOQ_WmqsozesyZYx-14" edge="1">
          <mxGeometry relative="1" as="geometry" />
        </mxCell>
        <mxCell id="SNeiOOQ_WmqsozesyZYx-153" value="칼럼 작성" style="rounded=1;whiteSpace=wrap;html=1;" parent="1" vertex="1">
          <mxGeometry x="1002.5" y="50" width="120" height="60" as="geometry" />
        </mxCell>
        <mxCell id="SNeiOOQ_WmqsozesyZYx-162" style="edgeStyle=none;curved=1;rounded=0;orthogonalLoop=1;jettySize=auto;html=1;fontSize=12;startSize=8;endSize=8;" parent="1" source="SNeiOOQ_WmqsozesyZYx-154" target="SNeiOOQ_WmqsozesyZYx-145" edge="1">
          <mxGeometry relative="1" as="geometry" />
        </mxCell>
        <mxCell id="SNeiOOQ_WmqsozesyZYx-154" value="칼럼 열람" style="rounded=1;whiteSpace=wrap;html=1;" parent="1" vertex="1">
          <mxGeometry x="1191.25" y="140" width="120" height="60" as="geometry" />
        </mxCell>
        <mxCell id="SNeiOOQ_WmqsozesyZYx-161" style="edgeStyle=none;curved=1;rounded=0;orthogonalLoop=1;jettySize=auto;html=1;fontSize=12;startSize=8;endSize=8;" parent="1" source="SNeiOOQ_WmqsozesyZYx-155" target="SNeiOOQ_WmqsozesyZYx-154" edge="1">
          <mxGeometry relative="1" as="geometry" />
        </mxCell>
        <mxCell id="SNeiOOQ_WmqsozesyZYx-155" value="" style="rounded=1;whiteSpace=wrap;html=1;" parent="1" vertex="1">
          <mxGeometry x="1180" y="300" width="240" height="230" as="geometry" />
        </mxCell>
        <mxCell id="SNeiOOQ_WmqsozesyZYx-156" value="팔로우한 사용자&lt;div&gt;칼럼&lt;/div&gt;" style="rounded=1;whiteSpace=wrap;html=1;" parent="1" vertex="1">
          <mxGeometry x="1225" y="330" width="120" height="60" as="geometry" />
        </mxCell>
        <mxCell id="SNeiOOQ_WmqsozesyZYx-157" value="좋아요 많이 받은&lt;div&gt;칼럼&lt;/div&gt;" style="rounded=1;whiteSpace=wrap;html=1;" parent="1" vertex="1">
          <mxGeometry x="1230" y="430" width="120" height="60" as="geometry" />
        </mxCell>
        <mxCell id="SNeiOOQ_WmqsozesyZYx-169" style="edgeStyle=none;curved=1;rounded=0;orthogonalLoop=1;jettySize=auto;html=1;fontSize=12;startSize=8;endSize=8;" parent="1" source="SNeiOOQ_WmqsozesyZYx-168" target="SNeiOOQ_WmqsozesyZYx-26" edge="1">
          <mxGeometry relative="1" as="geometry" />
        </mxCell>
        <mxCell id="SNeiOOQ_WmqsozesyZYx-177" style="edgeStyle=none;curved=1;rounded=0;orthogonalLoop=1;jettySize=auto;html=1;fontSize=12;startSize=8;endSize=8;" parent="1" source="SNeiOOQ_WmqsozesyZYx-168" target="SNeiOOQ_WmqsozesyZYx-170" edge="1">
          <mxGeometry relative="1" as="geometry" />
        </mxCell>
        <mxCell id="SNeiOOQ_WmqsozesyZYx-168" value="추가검색&lt;div&gt;(코스 담기)&lt;/div&gt;" style="rounded=1;whiteSpace=wrap;html=1;" parent="1" vertex="1">
          <mxGeometry x="710" y="1110" width="120" height="60" as="geometry" />
        </mxCell>
        <mxCell id="SNeiOOQ_WmqsozesyZYx-170" value="" style="rounded=1;whiteSpace=wrap;html=1;" parent="1" vertex="1">
          <mxGeometry x="720" y="1620" width="670" height="210" as="geometry" />
        </mxCell>
        <mxCell id="SNeiOOQ_WmqsozesyZYx-171" value="코스" style="rounded=1;whiteSpace=wrap;html=1;" parent="1" vertex="1">
          <mxGeometry x="800" y="1710" width="120" height="60" as="geometry" />
        </mxCell>
        <mxCell id="SNeiOOQ_WmqsozesyZYx-172" value="중계점" style="rounded=1;whiteSpace=wrap;html=1;" parent="1" vertex="1">
          <mxGeometry x="980" y="1710" width="120" height="60" as="geometry" />
        </mxCell>
        <mxCell id="SNeiOOQ_WmqsozesyZYx-173" value="총 소요시간" style="rounded=1;whiteSpace=wrap;html=1;" parent="1" vertex="1">
          <mxGeometry x="1110" y="1710" width="120" height="60" as="geometry" />
        </mxCell>
        <mxCell id="SNeiOOQ_WmqsozesyZYx-175" style="edgeStyle=none;curved=1;rounded=0;orthogonalLoop=1;jettySize=auto;html=1;fontSize=12;startSize=8;endSize=8;" parent="1" source="SNeiOOQ_WmqsozesyZYx-174" target="SNeiOOQ_WmqsozesyZYx-33" edge="1">
          <mxGeometry relative="1" as="geometry" />
        </mxCell>
        <mxCell id="SNeiOOQ_WmqsozesyZYx-174" value="공유" style="rounded=1;whiteSpace=wrap;html=1;" parent="1" vertex="1">
          <mxGeometry x="1240" y="1710" width="120" height="60" as="geometry" />
        </mxCell>
        <mxCell id="SNeiOOQ_WmqsozesyZYx-181" value="닉네임" style="rounded=1;whiteSpace=wrap;html=1;" parent="1" vertex="1">
          <mxGeometry x="1590" y="1380" width="120" height="60" as="geometry" />
        </mxCell>
        <mxCell id="SNeiOOQ_WmqsozesyZYx-182" value="닉네임" style="rounded=1;whiteSpace=wrap;html=1;" parent="1" vertex="1">
          <mxGeometry x="3145" y="-140" width="120" height="60" as="geometry" />
        </mxCell>
        <mxCell id="SNeiOOQ_WmqsozesyZYx-183" style="edgeStyle=none;curved=1;rounded=0;orthogonalLoop=1;jettySize=auto;html=1;entryX=0.006;entryY=0.059;entryDx=0;entryDy=0;entryPerimeter=0;fontSize=12;startSize=8;endSize=8;" parent="1" source="SNeiOOQ_WmqsozesyZYx-150" target="SNeiOOQ_WmqsozesyZYx-94" edge="1">
          <mxGeometry relative="1" as="geometry" />
        </mxCell>
        <mxCell id="Zmx-d6A7s9md1ERsDLhn-1" value="" style="rounded=0;whiteSpace=wrap;html=1;" parent="1" vertex="1">
          <mxGeometry x="6920" y="1900" width="570" height="270" as="geometry" />
        </mxCell>
        <mxCell id="Zmx-d6A7s9md1ERsDLhn-2" value="" style="rounded=0;whiteSpace=wrap;html=1;" parent="1" vertex="1">
          <mxGeometry x="6820" y="2200" width="530" height="590" as="geometry" />
        </mxCell>
        <mxCell id="Zmx-d6A7s9md1ERsDLhn-3" style="edgeStyle=none;curved=1;rounded=0;orthogonalLoop=1;jettySize=auto;html=1;fontSize=12;startSize=8;endSize=8;" parent="1" source="Zmx-d6A7s9md1ERsDLhn-4" target="Zmx-d6A7s9md1ERsDLhn-15" edge="1">
          <mxGeometry relative="1" as="geometry" />
        </mxCell>
        <mxCell id="Zmx-d6A7s9md1ERsDLhn-4" value="" style="rounded=1;whiteSpace=wrap;html=1;" parent="1" vertex="1">
          <mxGeometry x="7046.25" y="2510" width="290" height="170" as="geometry" />
        </mxCell>
        <mxCell id="Zmx-d6A7s9md1ERsDLhn-5" value="메인 홈페이지" style="rounded=1;whiteSpace=wrap;html=1;dashed=1;" parent="1" vertex="1">
          <mxGeometry x="6865" y="2700" width="120" height="60" as="geometry" />
        </mxCell>
        <mxCell id="Zmx-d6A7s9md1ERsDLhn-6" value="검색" style="rounded=1;whiteSpace=wrap;html=1;" parent="1" vertex="1">
          <mxGeometry x="7072.5" y="2532.5" width="110" height="60" as="geometry" />
        </mxCell>
        <mxCell id="Zmx-d6A7s9md1ERsDLhn-7" value="카테고리" style="rounded=1;whiteSpace=wrap;html=1;" parent="1" vertex="1">
          <mxGeometry x="7191.25" y="2532.5" width="120" height="60" as="geometry" />
        </mxCell>
        <mxCell id="Zmx-d6A7s9md1ERsDLhn-8" value="지역" style="rounded=1;whiteSpace=wrap;html=1;" parent="1" vertex="1">
          <mxGeometry x="7061.25" y="2602.5" width="120" height="60" as="geometry" />
        </mxCell>
        <mxCell id="Zmx-d6A7s9md1ERsDLhn-9" value="상황&lt;div&gt;(연인, 가족, 친구)&lt;/div&gt;" style="rounded=1;whiteSpace=wrap;html=1;" parent="1" vertex="1">
          <mxGeometry x="7191.25" y="2602.5" width="120" height="60" as="geometry" />
        </mxCell>
        <mxCell id="Zmx-d6A7s9md1ERsDLhn-10" style="edgeStyle=none;curved=1;rounded=0;orthogonalLoop=1;jettySize=auto;html=1;fontSize=12;startSize=8;endSize=8;" parent="1" source="Zmx-d6A7s9md1ERsDLhn-12" target="Zmx-d6A7s9md1ERsDLhn-4" edge="1">
          <mxGeometry relative="1" as="geometry" />
        </mxCell>
        <mxCell id="Zmx-d6A7s9md1ERsDLhn-11" value="날씨에 따른 추천 반영" style="edgeLabel;html=1;align=center;verticalAlign=middle;resizable=0;points=[];fontSize=12;" parent="Zmx-d6A7s9md1ERsDLhn-10" vertex="1" connectable="0">
          <mxGeometry x="-0.3114" y="2" relative="1" as="geometry">
            <mxPoint as="offset" />
          </mxGeometry>
        </mxCell>
        <mxCell id="Zmx-d6A7s9md1ERsDLhn-12" value="날씨 API" style="ellipse;whiteSpace=wrap;html=1;" parent="1" vertex="1">
          <mxGeometry x="7490" y="2455" width="120" height="80" as="geometry" />
        </mxCell>
        <mxCell id="Zmx-d6A7s9md1ERsDLhn-13" value="" style="rounded=1;whiteSpace=wrap;html=1;" parent="1" vertex="1">
          <mxGeometry x="7210" y="2000" width="267.5" height="155" as="geometry" />
        </mxCell>
        <mxCell id="Zmx-d6A7s9md1ERsDLhn-14" value="칼럼 작성" style="rounded=1;whiteSpace=wrap;html=1;" parent="1" vertex="1">
          <mxGeometry x="7220" y="2080" width="120" height="60" as="geometry" />
        </mxCell>
        <mxCell id="Zmx-d6A7s9md1ERsDLhn-15" value="" style="rounded=1;whiteSpace=wrap;html=1;" parent="1" vertex="1">
          <mxGeometry x="6900" y="2825" width="460" height="445" as="geometry" />
        </mxCell>
        <mxCell id="Zmx-d6A7s9md1ERsDLhn-16" value="검색" style="rounded=1;whiteSpace=wrap;html=1;dashed=1;" parent="1" vertex="1">
          <mxGeometry x="6920" y="2850" width="110" height="80" as="geometry" />
        </mxCell>
        <mxCell id="Zmx-d6A7s9md1ERsDLhn-17" value="" style="rounded=1;whiteSpace=wrap;html=1;" parent="1" vertex="1">
          <mxGeometry x="7050" y="2850" width="281.25" height="150" as="geometry" />
        </mxCell>
        <mxCell id="Zmx-d6A7s9md1ERsDLhn-18" value="지도" style="rounded=1;whiteSpace=wrap;html=1;" parent="1" vertex="1">
          <mxGeometry x="7195" y="2930" width="120" height="60" as="geometry" />
        </mxCell>
        <mxCell id="Zmx-d6A7s9md1ERsDLhn-19" value="사업장 액터가&lt;div&gt;추가한 업장&lt;/div&gt;" style="rounded=1;whiteSpace=wrap;html=1;" parent="1" vertex="1">
          <mxGeometry x="7195" y="2860" width="120" height="60" as="geometry" />
        </mxCell>
        <mxCell id="Zmx-d6A7s9md1ERsDLhn-21" style="edgeStyle=none;curved=1;rounded=0;orthogonalLoop=1;jettySize=auto;html=1;fontSize=12;startSize=8;endSize=8;entryX=1;entryY=0.75;entryDx=0;entryDy=0;" parent="1" source="l-PUMWSrgodT5HXm0ml5-49" target="Zmx-d6A7s9md1ERsDLhn-17" edge="1">
          <mxGeometry relative="1" as="geometry">
            <mxPoint x="7402.441860465116" y="3040" as="sourcePoint" />
          </mxGeometry>
        </mxCell>
        <mxCell id="Zmx-d6A7s9md1ERsDLhn-22" style="edgeStyle=none;curved=1;rounded=0;orthogonalLoop=1;jettySize=auto;html=1;fontSize=12;startSize=8;endSize=8;" parent="1" source="Zmx-d6A7s9md1ERsDLhn-23" target="Zmx-d6A7s9md1ERsDLhn-136" edge="1">
          <mxGeometry relative="1" as="geometry" />
        </mxCell>
        <mxCell id="Zmx-d6A7s9md1ERsDLhn-23" value="" style="rounded=1;whiteSpace=wrap;html=1;" parent="1" vertex="1">
          <mxGeometry x="7180" y="3010" width="151.25" height="240" as="geometry" />
        </mxCell>
        <mxCell id="Zmx-d6A7s9md1ERsDLhn-24" value="주변 관광지 탐색" style="rounded=1;whiteSpace=wrap;html=1;" parent="1" vertex="1">
          <mxGeometry x="7195" y="3100" width="120" height="60" as="geometry" />
        </mxCell>
        <mxCell id="Zmx-d6A7s9md1ERsDLhn-25" style="edgeStyle=none;curved=1;rounded=0;orthogonalLoop=1;jettySize=auto;html=1;entryX=0.992;entryY=0.667;entryDx=0;entryDy=0;entryPerimeter=0;fontSize=12;startSize=8;endSize=8;" parent="1" source="l-PUMWSrgodT5HXm0ml5-49" target="Zmx-d6A7s9md1ERsDLhn-23" edge="1">
          <mxGeometry relative="1" as="geometry">
            <mxPoint x="7400.035971223022" y="3100" as="sourcePoint" />
          </mxGeometry>
        </mxCell>
        <mxCell id="Zmx-d6A7s9md1ERsDLhn-26" value="거리정보" style="rounded=1;whiteSpace=wrap;html=1;" parent="1" vertex="1">
          <mxGeometry x="7195" y="3030" width="120" height="60" as="geometry" />
        </mxCell>
        <mxCell id="Zmx-d6A7s9md1ERsDLhn-27" value="소요시간" style="rounded=1;whiteSpace=wrap;html=1;" parent="1" vertex="1">
          <mxGeometry x="7195" y="3170" width="120" height="60" as="geometry" />
        </mxCell>
        <mxCell id="Zmx-d6A7s9md1ERsDLhn-28" value="공개범위" style="rounded=1;whiteSpace=wrap;html=1;" parent="1" vertex="1">
          <mxGeometry x="7350" y="2080" width="120" height="60" as="geometry" />
        </mxCell>
        <mxCell id="Zmx-d6A7s9md1ERsDLhn-29" style="edgeStyle=none;curved=1;rounded=0;orthogonalLoop=1;jettySize=auto;html=1;fontSize=12;startSize=8;endSize=8;" parent="1" source="Zmx-d6A7s9md1ERsDLhn-31" target="Zmx-d6A7s9md1ERsDLhn-96" edge="1">
          <mxGeometry relative="1" as="geometry" />
        </mxCell>
        <mxCell id="Zmx-d6A7s9md1ERsDLhn-30" style="edgeStyle=none;curved=1;rounded=0;orthogonalLoop=1;jettySize=auto;html=1;fontSize=12;startSize=8;endSize=8;" parent="1" source="Zmx-d6A7s9md1ERsDLhn-31" target="Zmx-d6A7s9md1ERsDLhn-91" edge="1">
          <mxGeometry relative="1" as="geometry" />
        </mxCell>
        <mxCell id="l-PUMWSrgodT5HXm0ml5-63" style="rounded=0;orthogonalLoop=1;jettySize=auto;html=1;" edge="1" parent="1" source="Zmx-d6A7s9md1ERsDLhn-31" target="l-PUMWSrgodT5HXm0ml5-57">
          <mxGeometry relative="1" as="geometry" />
        </mxCell>
        <mxCell id="Zmx-d6A7s9md1ERsDLhn-31" value="사용자" style="shape=umlActor;verticalLabelPosition=bottom;verticalAlign=top;html=1;outlineConnect=0;" parent="1" vertex="1">
          <mxGeometry x="7975" y="2940" width="30" height="60" as="geometry" />
        </mxCell>
        <mxCell id="Zmx-d6A7s9md1ERsDLhn-32" value="" style="rounded=1;whiteSpace=wrap;html=1;" parent="1" vertex="1">
          <mxGeometry x="7560" y="1950" width="750" height="220" as="geometry" />
        </mxCell>
        <mxCell id="Zmx-d6A7s9md1ERsDLhn-34" style="edgeStyle=none;curved=1;rounded=0;orthogonalLoop=1;jettySize=auto;html=1;fontSize=12;startSize=8;endSize=8;" parent="1" source="Zmx-d6A7s9md1ERsDLhn-35" target="Zmx-d6A7s9md1ERsDLhn-13" edge="1">
          <mxGeometry relative="1" as="geometry" />
        </mxCell>
        <mxCell id="Zmx-d6A7s9md1ERsDLhn-35" value="" style="rounded=1;whiteSpace=wrap;html=1;" parent="1" vertex="1">
          <mxGeometry x="7580" y="1970" width="280" height="160" as="geometry" />
        </mxCell>
        <mxCell id="Zmx-d6A7s9md1ERsDLhn-36" value="리뷰" style="rounded=1;whiteSpace=wrap;html=1;" parent="1" vertex="1">
          <mxGeometry x="7730" y="1985" width="120" height="60" as="geometry" />
        </mxCell>
        <mxCell id="Zmx-d6A7s9md1ERsDLhn-37" value="별점" style="rounded=1;whiteSpace=wrap;html=1;" parent="1" vertex="1">
          <mxGeometry x="7730" y="2055" width="120" height="60" as="geometry" />
        </mxCell>
        <mxCell id="Zmx-d6A7s9md1ERsDLhn-38" style="edgeStyle=none;curved=1;rounded=0;orthogonalLoop=1;jettySize=auto;html=1;fontSize=12;startSize=8;endSize=8;" parent="1" source="Zmx-d6A7s9md1ERsDLhn-39" target="Zmx-d6A7s9md1ERsDLhn-9" edge="1">
          <mxGeometry relative="1" as="geometry" />
        </mxCell>
        <mxCell id="Zmx-d6A7s9md1ERsDLhn-39" value="상황&lt;div&gt;(연인, 가족, 친구)&lt;/div&gt;" style="rounded=1;whiteSpace=wrap;html=1;" parent="1" vertex="1">
          <mxGeometry x="7600" y="2055" width="120" height="60" as="geometry" />
        </mxCell>
        <mxCell id="Zmx-d6A7s9md1ERsDLhn-40" style="edgeStyle=none;curved=1;rounded=0;orthogonalLoop=1;jettySize=auto;html=1;fontSize=12;startSize=8;endSize=8;" parent="1" source="Zmx-d6A7s9md1ERsDLhn-41" target="Zmx-d6A7s9md1ERsDLhn-13" edge="1">
          <mxGeometry relative="1" as="geometry" />
        </mxCell>
        <mxCell id="Zmx-d6A7s9md1ERsDLhn-41" value="" style="rounded=1;whiteSpace=wrap;html=1;" parent="1" vertex="1">
          <mxGeometry x="7880" y="1970" width="280" height="165" as="geometry" />
        </mxCell>
        <mxCell id="Zmx-d6A7s9md1ERsDLhn-43" value="메뉴" style="rounded=1;whiteSpace=wrap;html=1;" parent="1" vertex="1">
          <mxGeometry x="7900" y="1985" width="120" height="60" as="geometry" />
        </mxCell>
        <mxCell id="Zmx-d6A7s9md1ERsDLhn-44" value="가격" style="rounded=1;whiteSpace=wrap;html=1;" parent="1" vertex="1">
          <mxGeometry x="7900" y="2055" width="120" height="60" as="geometry" />
        </mxCell>
        <mxCell id="Zmx-d6A7s9md1ERsDLhn-45" value="" style="rounded=1;whiteSpace=wrap;html=1;" parent="1" vertex="1">
          <mxGeometry x="8630" y="2617.5" width="300" height="200" as="geometry" />
        </mxCell>
        <mxCell id="Zmx-d6A7s9md1ERsDLhn-46" value="" style="rounded=1;whiteSpace=wrap;html=1;" parent="1" vertex="1">
          <mxGeometry x="8650" y="2717.5" width="270" height="80" as="geometry" />
        </mxCell>
        <mxCell id="Zmx-d6A7s9md1ERsDLhn-47" style="edgeStyle=none;curved=1;rounded=0;orthogonalLoop=1;jettySize=auto;html=1;fontSize=12;startSize=8;endSize=8;" parent="1" source="Zmx-d6A7s9md1ERsDLhn-50" target="Zmx-d6A7s9md1ERsDLhn-52" edge="1">
          <mxGeometry relative="1" as="geometry" />
        </mxCell>
        <mxCell id="Zmx-d6A7s9md1ERsDLhn-48" style="edgeStyle=none;curved=1;rounded=0;orthogonalLoop=1;jettySize=auto;html=1;fontSize=12;startSize=8;endSize=8;" parent="1" source="Zmx-d6A7s9md1ERsDLhn-50" target="Zmx-d6A7s9md1ERsDLhn-53" edge="1">
          <mxGeometry relative="1" as="geometry" />
        </mxCell>
        <mxCell id="Zmx-d6A7s9md1ERsDLhn-49" style="edgeStyle=none;curved=1;rounded=0;orthogonalLoop=1;jettySize=auto;html=1;fontSize=12;startSize=8;endSize=8;" parent="1" source="Zmx-d6A7s9md1ERsDLhn-50" target="Zmx-d6A7s9md1ERsDLhn-56" edge="1">
          <mxGeometry relative="1" as="geometry" />
        </mxCell>
        <mxCell id="Zmx-d6A7s9md1ERsDLhn-50" value="예약 받기" style="rounded=1;whiteSpace=wrap;html=1;dashed=1;" parent="1" vertex="1">
          <mxGeometry x="8660" y="2632.5" width="120" height="60" as="geometry" />
        </mxCell>
        <mxCell id="Zmx-d6A7s9md1ERsDLhn-51" value="사업자" style="shape=umlActor;verticalLabelPosition=bottom;verticalAlign=top;html=1;outlineConnect=0;" parent="1" vertex="1">
          <mxGeometry x="9270" y="2890" width="30" height="60" as="geometry" />
        </mxCell>
        <mxCell id="Zmx-d6A7s9md1ERsDLhn-52" value="시간 날짜" style="rounded=1;whiteSpace=wrap;html=1;" parent="1" vertex="1">
          <mxGeometry x="8660" y="2725" width="120" height="60" as="geometry" />
        </mxCell>
        <mxCell id="Zmx-d6A7s9md1ERsDLhn-53" value="인원수" style="rounded=1;whiteSpace=wrap;html=1;" parent="1" vertex="1">
          <mxGeometry x="8790" y="2725" width="120" height="60" as="geometry" />
        </mxCell>
        <mxCell id="Zmx-d6A7s9md1ERsDLhn-54" value="승낙 및 거절" style="rounded=1;whiteSpace=wrap;html=1;" parent="1" vertex="1">
          <mxGeometry x="8790" y="2632.5" width="120" height="60" as="geometry" />
        </mxCell>
        <mxCell id="Zmx-d6A7s9md1ERsDLhn-55" style="edgeStyle=none;curved=1;rounded=0;orthogonalLoop=1;jettySize=auto;html=1;fontSize=12;startSize=8;endSize=8;" parent="1" source="Zmx-d6A7s9md1ERsDLhn-56" target="Zmx-d6A7s9md1ERsDLhn-50" edge="1">
          <mxGeometry relative="1" as="geometry" />
        </mxCell>
        <mxCell id="Zmx-d6A7s9md1ERsDLhn-56" value="문서함" style="rounded=0;whiteSpace=wrap;html=1;" parent="1" vertex="1">
          <mxGeometry x="7180" y="2700" width="140" height="70" as="geometry" />
        </mxCell>
        <mxCell id="Zmx-d6A7s9md1ERsDLhn-57" value="지역" style="rounded=1;whiteSpace=wrap;html=1;" parent="1" vertex="1">
          <mxGeometry x="8025" y="1985" width="120" height="60" as="geometry" />
        </mxCell>
        <mxCell id="Zmx-d6A7s9md1ERsDLhn-58" value="작성한 리뷰" style="rounded=1;whiteSpace=wrap;html=1;" parent="1" vertex="1">
          <mxGeometry x="7220" y="2010" width="120" height="60" as="geometry" />
        </mxCell>
        <mxCell id="l-PUMWSrgodT5HXm0ml5-13" style="rounded=0;orthogonalLoop=1;jettySize=auto;html=1;entryX=1;entryY=0.75;entryDx=0;entryDy=0;" edge="1" parent="1" source="Zmx-d6A7s9md1ERsDLhn-60" target="l-PUMWSrgodT5HXm0ml5-5">
          <mxGeometry relative="1" as="geometry" />
        </mxCell>
        <mxCell id="Zmx-d6A7s9md1ERsDLhn-60" value="" style="rounded=1;whiteSpace=wrap;html=1;" parent="1" vertex="1">
          <mxGeometry x="8960" y="2155" width="320" height="190" as="geometry" />
        </mxCell>
        <mxCell id="Zmx-d6A7s9md1ERsDLhn-61" value="사업장&lt;div&gt;등록 및 수정&amp;nbsp;&lt;span style=&quot;background-color: transparent; color: light-dark(rgb(0, 0, 0), rgb(255, 255, 255));&quot;&gt;요청&lt;/span&gt;&lt;/div&gt;" style="rounded=1;whiteSpace=wrap;html=1;dashed=1;" parent="1" vertex="1">
          <mxGeometry x="8980" y="2265" width="120" height="60" as="geometry" />
        </mxCell>
        <mxCell id="Zmx-d6A7s9md1ERsDLhn-62" value="" style="rounded=1;whiteSpace=wrap;html=1;" parent="1" vertex="1">
          <mxGeometry x="9110" y="2165" width="160" height="170" as="geometry" />
        </mxCell>
        <mxCell id="Zmx-d6A7s9md1ERsDLhn-63" value="사업자등록번호" style="rounded=1;whiteSpace=wrap;html=1;" parent="1" vertex="1">
          <mxGeometry x="9130" y="2180" width="120" height="60" as="geometry" />
        </mxCell>
        <mxCell id="Zmx-d6A7s9md1ERsDLhn-64" value="가게 정보" style="rounded=1;whiteSpace=wrap;html=1;" parent="1" vertex="1">
          <mxGeometry x="9130" y="2255" width="120" height="60" as="geometry" />
        </mxCell>
        <mxCell id="Zmx-d6A7s9md1ERsDLhn-65" value="" style="rounded=1;whiteSpace=wrap;html=1;" parent="1" vertex="1">
          <mxGeometry x="8960" y="2602.5" width="270" height="230" as="geometry" />
        </mxCell>
        <mxCell id="Zmx-d6A7s9md1ERsDLhn-66" value="사업자&lt;div&gt;회원가입&lt;/div&gt;" style="rounded=1;whiteSpace=wrap;html=1;dashed=1;" parent="1" vertex="1">
          <mxGeometry x="8970" y="2762.5" width="120" height="60" as="geometry" />
        </mxCell>
        <mxCell id="Zmx-d6A7s9md1ERsDLhn-67" value="아이디&lt;div&gt;패스워드&lt;/div&gt;" style="rounded=1;whiteSpace=wrap;html=1;" parent="1" vertex="1">
          <mxGeometry x="8970" y="2622.5" width="120" height="60" as="geometry" />
        </mxCell>
        <mxCell id="Zmx-d6A7s9md1ERsDLhn-68" value="생년월일&lt;div&gt;이름&lt;/div&gt;" style="rounded=1;whiteSpace=wrap;html=1;" parent="1" vertex="1">
          <mxGeometry x="9100" y="2762.5" width="120" height="60" as="geometry" />
        </mxCell>
        <mxCell id="Zmx-d6A7s9md1ERsDLhn-69" value="전화번호" style="rounded=1;whiteSpace=wrap;html=1;" parent="1" vertex="1">
          <mxGeometry x="9100" y="2622.5" width="120" height="60" as="geometry" />
        </mxCell>
        <mxCell id="Zmx-d6A7s9md1ERsDLhn-70" value="주소" style="rounded=1;whiteSpace=wrap;html=1;" parent="1" vertex="1">
          <mxGeometry x="9100" y="2692.5" width="120" height="60" as="geometry" />
        </mxCell>
        <mxCell id="Zmx-d6A7s9md1ERsDLhn-71" style="edgeStyle=none;curved=1;rounded=0;orthogonalLoop=1;jettySize=auto;html=1;fontSize=12;startSize=8;endSize=8;" parent="1" source="Zmx-d6A7s9md1ERsDLhn-73" target="Zmx-d6A7s9md1ERsDLhn-45" edge="1">
          <mxGeometry relative="1" as="geometry" />
        </mxCell>
        <mxCell id="Zmx-d6A7s9md1ERsDLhn-72" style="edgeStyle=none;curved=1;rounded=0;orthogonalLoop=1;jettySize=auto;html=1;fontSize=12;startSize=8;endSize=8;" parent="1" source="Zmx-d6A7s9md1ERsDLhn-42" target="Zmx-d6A7s9md1ERsDLhn-19" edge="1">
          <mxGeometry relative="1" as="geometry" />
        </mxCell>
        <mxCell id="Zmx-d6A7s9md1ERsDLhn-73" value="등록 및 수정" style="rounded=1;whiteSpace=wrap;html=1;" parent="1" vertex="1">
          <mxGeometry x="8170" y="1980" width="120" height="60" as="geometry" />
        </mxCell>
        <mxCell id="l-PUMWSrgodT5HXm0ml5-17" style="rounded=0;orthogonalLoop=1;jettySize=auto;html=1;" edge="1" parent="1" source="Zmx-d6A7s9md1ERsDLhn-75" target="Zmx-d6A7s9md1ERsDLhn-60">
          <mxGeometry relative="1" as="geometry" />
        </mxCell>
        <mxCell id="Zmx-d6A7s9md1ERsDLhn-75" value="" style="rounded=1;whiteSpace=wrap;html=1;" parent="1" vertex="1">
          <mxGeometry x="8980" y="2400" width="280" height="160" as="geometry" />
        </mxCell>
        <mxCell id="Zmx-d6A7s9md1ERsDLhn-77" value="로그인" style="rounded=1;whiteSpace=wrap;html=1;dashed=1;" parent="1" vertex="1">
          <mxGeometry x="8990" y="2410" width="120" height="60" as="geometry" />
        </mxCell>
        <mxCell id="Zmx-d6A7s9md1ERsDLhn-78" value="아이디" style="rounded=1;whiteSpace=wrap;html=1;" parent="1" vertex="1">
          <mxGeometry x="9130" y="2410" width="120" height="60" as="geometry" />
        </mxCell>
        <mxCell id="Zmx-d6A7s9md1ERsDLhn-79" value="패스워드" style="rounded=1;whiteSpace=wrap;html=1;" parent="1" vertex="1">
          <mxGeometry x="9130" y="2490" width="120" height="60" as="geometry" />
        </mxCell>
        <mxCell id="Zmx-d6A7s9md1ERsDLhn-87" style="edgeStyle=none;curved=1;rounded=0;orthogonalLoop=1;jettySize=auto;html=1;fontSize=12;startSize=8;endSize=8;" parent="1" source="Zmx-d6A7s9md1ERsDLhn-51" target="Zmx-d6A7s9md1ERsDLhn-66" edge="1">
          <mxGeometry relative="1" as="geometry" />
        </mxCell>
        <mxCell id="Zmx-d6A7s9md1ERsDLhn-89" style="edgeStyle=none;curved=1;rounded=0;orthogonalLoop=1;jettySize=auto;html=1;fontSize=12;startSize=8;endSize=8;" parent="1" source="Zmx-d6A7s9md1ERsDLhn-51" target="Zmx-d6A7s9md1ERsDLhn-75" edge="1">
          <mxGeometry relative="1" as="geometry" />
        </mxCell>
        <mxCell id="Zmx-d6A7s9md1ERsDLhn-90" style="edgeStyle=none;curved=1;rounded=0;orthogonalLoop=1;jettySize=auto;html=1;fontSize=12;startSize=8;endSize=8;exitX=0.009;exitY=0.143;exitDx=0;exitDy=0;exitPerimeter=0;" parent="1" source="Zmx-d6A7s9md1ERsDLhn-91" target="Zmx-d6A7s9md1ERsDLhn-2" edge="1">
          <mxGeometry relative="1" as="geometry" />
        </mxCell>
        <mxCell id="Zmx-d6A7s9md1ERsDLhn-91" value="" style="rounded=1;whiteSpace=wrap;html=1;" parent="1" vertex="1">
          <mxGeometry x="7580" y="3210" width="280" height="160" as="geometry" />
        </mxCell>
        <mxCell id="Zmx-d6A7s9md1ERsDLhn-92" value="&lt;div&gt;사용자&lt;/div&gt;로그인" style="rounded=1;whiteSpace=wrap;html=1;dashed=1;" parent="1" vertex="1">
          <mxGeometry x="7600" y="3220" width="120" height="60" as="geometry" />
        </mxCell>
        <mxCell id="Zmx-d6A7s9md1ERsDLhn-93" value="아이디" style="rounded=1;whiteSpace=wrap;html=1;" parent="1" vertex="1">
          <mxGeometry x="7730" y="3295" width="120" height="60" as="geometry" />
        </mxCell>
        <mxCell id="Zmx-d6A7s9md1ERsDLhn-94" value="패스워드" style="rounded=1;whiteSpace=wrap;html=1;" parent="1" vertex="1">
          <mxGeometry x="7730" y="3220" width="120" height="60" as="geometry" />
        </mxCell>
        <mxCell id="Zmx-d6A7s9md1ERsDLhn-96" value="" style="rounded=1;whiteSpace=wrap;html=1;" parent="1" vertex="1">
          <mxGeometry x="7910" y="3100" width="290" height="230" as="geometry" />
        </mxCell>
        <mxCell id="Zmx-d6A7s9md1ERsDLhn-97" value="사용자&lt;div&gt;회원가입&lt;/div&gt;" style="rounded=1;whiteSpace=wrap;html=1;dashed=1;" parent="1" vertex="1">
          <mxGeometry x="7930" y="3250" width="120" height="60" as="geometry" />
        </mxCell>
        <mxCell id="Zmx-d6A7s9md1ERsDLhn-98" value="아이디&lt;div&gt;패스워드&lt;/div&gt;" style="rounded=1;whiteSpace=wrap;html=1;" parent="1" vertex="1">
          <mxGeometry x="7930" y="3110" width="120" height="60" as="geometry" />
        </mxCell>
        <mxCell id="Zmx-d6A7s9md1ERsDLhn-99" value="생년월일&lt;div&gt;이름&lt;/div&gt;" style="rounded=1;whiteSpace=wrap;html=1;" parent="1" vertex="1">
          <mxGeometry x="8060" y="3250" width="120" height="60" as="geometry" />
        </mxCell>
        <mxCell id="Zmx-d6A7s9md1ERsDLhn-100" value="전화번호" style="rounded=1;whiteSpace=wrap;html=1;" parent="1" vertex="1">
          <mxGeometry x="8060" y="3110" width="120" height="60" as="geometry" />
        </mxCell>
        <mxCell id="Zmx-d6A7s9md1ERsDLhn-101" value="주소" style="rounded=1;whiteSpace=wrap;html=1;" parent="1" vertex="1">
          <mxGeometry x="8060" y="3180" width="120" height="60" as="geometry" />
        </mxCell>
        <mxCell id="Zmx-d6A7s9md1ERsDLhn-102" value="" style="rounded=1;whiteSpace=wrap;html=1;" parent="1" vertex="1">
          <mxGeometry x="8025" y="2210" width="280" height="180" as="geometry" />
        </mxCell>
        <mxCell id="Zmx-d6A7s9md1ERsDLhn-103" value="" style="rounded=1;whiteSpace=wrap;html=1;" parent="1" vertex="1">
          <mxGeometry x="8035" y="2295" width="265" height="85" as="geometry" />
        </mxCell>
        <mxCell id="Zmx-d6A7s9md1ERsDLhn-104" style="edgeStyle=none;curved=1;rounded=0;orthogonalLoop=1;jettySize=auto;html=1;fontSize=12;startSize=8;endSize=8;" parent="1" source="Zmx-d6A7s9md1ERsDLhn-107" target="Zmx-d6A7s9md1ERsDLhn-108" edge="1">
          <mxGeometry relative="1" as="geometry" />
        </mxCell>
        <mxCell id="Zmx-d6A7s9md1ERsDLhn-105" style="edgeStyle=none;curved=1;rounded=0;orthogonalLoop=1;jettySize=auto;html=1;fontSize=12;startSize=8;endSize=8;" parent="1" source="Zmx-d6A7s9md1ERsDLhn-107" target="Zmx-d6A7s9md1ERsDLhn-109" edge="1">
          <mxGeometry relative="1" as="geometry" />
        </mxCell>
        <mxCell id="Zmx-d6A7s9md1ERsDLhn-106" style="edgeStyle=none;curved=1;rounded=0;orthogonalLoop=1;jettySize=auto;html=1;fontSize=12;startSize=8;endSize=8;" parent="1" source="Zmx-d6A7s9md1ERsDLhn-107" target="Zmx-d6A7s9md1ERsDLhn-50" edge="1">
          <mxGeometry relative="1" as="geometry" />
        </mxCell>
        <mxCell id="Zmx-d6A7s9md1ERsDLhn-107" value="예약 하기" style="rounded=1;whiteSpace=wrap;html=1;dashed=1;" parent="1" vertex="1">
          <mxGeometry x="8175" y="2220" width="120" height="60" as="geometry" />
        </mxCell>
        <mxCell id="Zmx-d6A7s9md1ERsDLhn-108" value="시간 날짜" style="rounded=1;whiteSpace=wrap;html=1;" parent="1" vertex="1">
          <mxGeometry x="8045" y="2310" width="120" height="60" as="geometry" />
        </mxCell>
        <mxCell id="Zmx-d6A7s9md1ERsDLhn-109" value="인원수" style="rounded=1;whiteSpace=wrap;html=1;" parent="1" vertex="1">
          <mxGeometry x="8175" y="2310" width="120" height="60" as="geometry" />
        </mxCell>
        <mxCell id="Zmx-d6A7s9md1ERsDLhn-110" style="edgeStyle=none;curved=1;rounded=0;orthogonalLoop=1;jettySize=auto;html=1;fontSize=12;startSize=8;endSize=8;" parent="1" source="Zmx-d6A7s9md1ERsDLhn-111" target="Zmx-d6A7s9md1ERsDLhn-107" edge="1">
          <mxGeometry relative="1" as="geometry" />
        </mxCell>
        <mxCell id="Zmx-d6A7s9md1ERsDLhn-111" value="예약 정하기" style="rounded=1;whiteSpace=wrap;html=1;" parent="1" vertex="1">
          <mxGeometry x="8170" y="2070" width="120" height="60" as="geometry" />
        </mxCell>
        <mxCell id="Zmx-d6A7s9md1ERsDLhn-112" value="" style="rounded=1;whiteSpace=wrap;html=1;" parent="1" vertex="1">
          <mxGeometry x="7045" y="2320" width="280" height="160" as="geometry" />
        </mxCell>
        <mxCell id="Zmx-d6A7s9md1ERsDLhn-113" value="추천지역 랭킹" style="rounded=1;whiteSpace=wrap;html=1;" parent="1" vertex="1">
          <mxGeometry x="7060" y="2335" width="120" height="60" as="geometry" />
        </mxCell>
        <mxCell id="Zmx-d6A7s9md1ERsDLhn-114" value="지역별" style="rounded=1;whiteSpace=wrap;html=1;" parent="1" vertex="1">
          <mxGeometry x="7185" y="2335" width="120" height="60" as="geometry" />
        </mxCell>
        <mxCell id="Zmx-d6A7s9md1ERsDLhn-115" value="종류별" style="rounded=1;whiteSpace=wrap;html=1;" parent="1" vertex="1">
          <mxGeometry x="7060" y="2402.5" width="120" height="60" as="geometry" />
        </mxCell>
        <mxCell id="Zmx-d6A7s9md1ERsDLhn-116" value="칼럼 미리보기" style="rounded=1;whiteSpace=wrap;html=1;" parent="1" vertex="1">
          <mxGeometry x="7185" y="2402.5" width="120" height="60" as="geometry" />
        </mxCell>
        <mxCell id="Zmx-d6A7s9md1ERsDLhn-117" value="지역" style="rounded=1;whiteSpace=wrap;html=1;" parent="1" vertex="1">
          <mxGeometry x="7350" y="2010" width="120" height="60" as="geometry" />
        </mxCell>
        <mxCell id="Zmx-d6A7s9md1ERsDLhn-118" value="" style="rounded=1;whiteSpace=wrap;html=1;" parent="1" vertex="1">
          <mxGeometry x="6930" y="2000" width="265" height="155" as="geometry" />
        </mxCell>
        <mxCell id="Zmx-d6A7s9md1ERsDLhn-119" value="칼럼 열람" style="rounded=1;whiteSpace=wrap;html=1;" parent="1" vertex="1">
          <mxGeometry x="6941.25" y="2080" width="120" height="60" as="geometry" />
        </mxCell>
        <mxCell id="Zmx-d6A7s9md1ERsDLhn-120" value="댓글" style="rounded=1;whiteSpace=wrap;html=1;" parent="1" vertex="1">
          <mxGeometry x="7070" y="2080" width="120" height="60" as="geometry" />
        </mxCell>
        <mxCell id="Zmx-d6A7s9md1ERsDLhn-121" value="좋아요" style="rounded=1;whiteSpace=wrap;html=1;" parent="1" vertex="1">
          <mxGeometry x="7070" y="2015" width="120" height="60" as="geometry" />
        </mxCell>
        <mxCell id="Zmx-d6A7s9md1ERsDLhn-122" value="칼럼 내용" style="rounded=1;whiteSpace=wrap;html=1;" parent="1" vertex="1">
          <mxGeometry x="6941.25" y="2010" width="120" height="60" as="geometry" />
        </mxCell>
        <mxCell id="Zmx-d6A7s9md1ERsDLhn-123" value="칼럼" style="rounded=0;whiteSpace=wrap;html=1;" parent="1" vertex="1">
          <mxGeometry x="6930" y="1920" width="120" height="60" as="geometry" />
        </mxCell>
        <mxCell id="Zmx-d6A7s9md1ERsDLhn-124" value="" style="rounded=1;whiteSpace=wrap;html=1;" parent="1" vertex="1">
          <mxGeometry x="7035" y="2210" width="290" height="87.5" as="geometry" />
        </mxCell>
        <mxCell id="Zmx-d6A7s9md1ERsDLhn-125" style="edgeStyle=none;curved=1;rounded=0;orthogonalLoop=1;jettySize=auto;html=1;fontSize=12;startSize=8;endSize=8;" parent="1" source="Zmx-d6A7s9md1ERsDLhn-126" target="Zmx-d6A7s9md1ERsDLhn-14" edge="1">
          <mxGeometry relative="1" as="geometry" />
        </mxCell>
        <mxCell id="Zmx-d6A7s9md1ERsDLhn-126" value="칼럼 작성" style="rounded=1;whiteSpace=wrap;html=1;" parent="1" vertex="1">
          <mxGeometry x="7180" y="2222.5" width="120" height="60" as="geometry" />
        </mxCell>
        <mxCell id="Zmx-d6A7s9md1ERsDLhn-127" style="edgeStyle=none;curved=1;rounded=0;orthogonalLoop=1;jettySize=auto;html=1;fontSize=12;startSize=8;endSize=8;" parent="1" source="Zmx-d6A7s9md1ERsDLhn-128" target="Zmx-d6A7s9md1ERsDLhn-118" edge="1">
          <mxGeometry relative="1" as="geometry" />
        </mxCell>
        <mxCell id="Zmx-d6A7s9md1ERsDLhn-128" value="칼럼 열람" style="rounded=1;whiteSpace=wrap;html=1;" parent="1" vertex="1">
          <mxGeometry x="7046.25" y="2222.5" width="120" height="60" as="geometry" />
        </mxCell>
        <mxCell id="Zmx-d6A7s9md1ERsDLhn-129" style="edgeStyle=none;curved=1;rounded=0;orthogonalLoop=1;jettySize=auto;html=1;fontSize=12;startSize=8;endSize=8;" parent="1" source="Zmx-d6A7s9md1ERsDLhn-130" target="Zmx-d6A7s9md1ERsDLhn-128" edge="1">
          <mxGeometry relative="1" as="geometry" />
        </mxCell>
        <mxCell id="Zmx-d6A7s9md1ERsDLhn-130" value="" style="rounded=1;whiteSpace=wrap;html=1;" parent="1" vertex="1">
          <mxGeometry x="6845" y="2210" width="160" height="180" as="geometry" />
        </mxCell>
        <mxCell id="Zmx-d6A7s9md1ERsDLhn-131" value="팔로우한 사용자&lt;div&gt;칼럼&lt;/div&gt;" style="rounded=1;whiteSpace=wrap;html=1;" parent="1" vertex="1">
          <mxGeometry x="6865" y="2230" width="120" height="60" as="geometry" />
        </mxCell>
        <mxCell id="Zmx-d6A7s9md1ERsDLhn-132" value="좋아요 많이 받은&lt;div&gt;칼럼&lt;/div&gt;" style="rounded=1;whiteSpace=wrap;html=1;" parent="1" vertex="1">
          <mxGeometry x="6865" y="2307.5" width="120" height="60" as="geometry" />
        </mxCell>
        <mxCell id="Zmx-d6A7s9md1ERsDLhn-133" style="edgeStyle=none;curved=1;rounded=0;orthogonalLoop=1;jettySize=auto;html=1;fontSize=12;startSize=8;endSize=8;" parent="1" source="Zmx-d6A7s9md1ERsDLhn-135" target="Zmx-d6A7s9md1ERsDLhn-23" edge="1">
          <mxGeometry relative="1" as="geometry" />
        </mxCell>
        <mxCell id="Zmx-d6A7s9md1ERsDLhn-134" style="edgeStyle=none;curved=1;rounded=0;orthogonalLoop=1;jettySize=auto;html=1;fontSize=12;startSize=8;endSize=8;" parent="1" source="Zmx-d6A7s9md1ERsDLhn-135" target="Zmx-d6A7s9md1ERsDLhn-136" edge="1">
          <mxGeometry relative="1" as="geometry" />
        </mxCell>
        <mxCell id="Zmx-d6A7s9md1ERsDLhn-135" value="추가검색&lt;div&gt;(코스 담기)&lt;/div&gt;" style="rounded=1;whiteSpace=wrap;html=1;" parent="1" vertex="1">
          <mxGeometry x="7062.5" y="2860" width="120" height="60" as="geometry" />
        </mxCell>
        <mxCell id="Zmx-d6A7s9md1ERsDLhn-136" value="" style="rounded=1;whiteSpace=wrap;html=1;" parent="1" vertex="1">
          <mxGeometry x="6855" y="3320" width="530" height="80" as="geometry" />
        </mxCell>
        <mxCell id="Zmx-d6A7s9md1ERsDLhn-137" value="코스" style="rounded=1;whiteSpace=wrap;html=1;dashed=1;" parent="1" vertex="1">
          <mxGeometry x="6865" y="3330" width="120" height="60" as="geometry" />
        </mxCell>
        <mxCell id="Zmx-d6A7s9md1ERsDLhn-138" value="중계점" style="rounded=1;whiteSpace=wrap;html=1;" parent="1" vertex="1">
          <mxGeometry x="6995" y="3330" width="120" height="60" as="geometry" />
        </mxCell>
        <mxCell id="Zmx-d6A7s9md1ERsDLhn-139" value="총 소요시간" style="rounded=1;whiteSpace=wrap;html=1;" parent="1" vertex="1">
          <mxGeometry x="7125" y="3330" width="120" height="60" as="geometry" />
        </mxCell>
        <mxCell id="l-PUMWSrgodT5HXm0ml5-64" style="rounded=0;orthogonalLoop=1;jettySize=auto;html=1;" edge="1" parent="1" source="Zmx-d6A7s9md1ERsDLhn-141" target="Zmx-d6A7s9md1ERsDLhn-31">
          <mxGeometry relative="1" as="geometry" />
        </mxCell>
        <mxCell id="l-PUMWSrgodT5HXm0ml5-65" value="URL 라우팅을 통한 링크공유" style="edgeLabel;html=1;align=center;verticalAlign=middle;resizable=0;points=[];" vertex="1" connectable="0" parent="l-PUMWSrgodT5HXm0ml5-64">
          <mxGeometry x="-0.6398" y="-6" relative="1" as="geometry">
            <mxPoint as="offset" />
          </mxGeometry>
        </mxCell>
        <mxCell id="Zmx-d6A7s9md1ERsDLhn-141" value="공유" style="rounded=1;whiteSpace=wrap;html=1;" parent="1" vertex="1">
          <mxGeometry x="7255" y="3330" width="120" height="60" as="geometry" />
        </mxCell>
        <mxCell id="Zmx-d6A7s9md1ERsDLhn-142" value="닉네임" style="rounded=1;whiteSpace=wrap;html=1;" parent="1" vertex="1">
          <mxGeometry x="7930" y="3180" width="120" height="60" as="geometry" />
        </mxCell>
        <mxCell id="Zmx-d6A7s9md1ERsDLhn-143" value="닉네임" style="rounded=1;whiteSpace=wrap;html=1;" parent="1" vertex="1">
          <mxGeometry x="8970" y="2692.5" width="120" height="60" as="geometry" />
        </mxCell>
        <mxCell id="Zmx-d6A7s9md1ERsDLhn-33" value="가게 상세정보" style="rounded=1;whiteSpace=wrap;html=1;dashed=1;" parent="1" vertex="1">
          <mxGeometry x="7600" y="1985" width="120" height="60" as="geometry" />
        </mxCell>
        <mxCell id="Zmx-d6A7s9md1ERsDLhn-147" value="" style="edgeStyle=none;curved=1;rounded=0;orthogonalLoop=1;jettySize=auto;html=1;fontSize=12;startSize=8;endSize=8;" parent="1" source="Zmx-d6A7s9md1ERsDLhn-73" target="Zmx-d6A7s9md1ERsDLhn-42" edge="1">
          <mxGeometry relative="1" as="geometry">
            <mxPoint x="8223" y="1870" as="sourcePoint" />
            <mxPoint x="6697" y="2840" as="targetPoint" />
          </mxGeometry>
        </mxCell>
        <mxCell id="Zmx-d6A7s9md1ERsDLhn-42" value="가게 이름" style="rounded=1;whiteSpace=wrap;html=1;" parent="1" vertex="1">
          <mxGeometry x="8025" y="2055" width="120" height="60" as="geometry" />
        </mxCell>
        <mxCell id="Zmx-d6A7s9md1ERsDLhn-148" style="edgeStyle=orthogonalEdgeStyle;rounded=0;orthogonalLoop=1;jettySize=auto;html=1;exitX=0.5;exitY=1;exitDx=0;exitDy=0;" parent="1" source="Zmx-d6A7s9md1ERsDLhn-57" target="Zmx-d6A7s9md1ERsDLhn-57" edge="1">
          <mxGeometry relative="1" as="geometry" />
        </mxCell>
        <mxCell id="l-PUMWSrgodT5HXm0ml5-1" value="어드민 액터, 사업장 추가시 정보 상세화, 각 액터별 마이 페이지 추가 피드백" style="text;whiteSpace=wrap;" vertex="1" parent="1">
          <mxGeometry x="7710" y="1540" width="410" height="40" as="geometry" />
        </mxCell>
        <mxCell id="l-PUMWSrgodT5HXm0ml5-14" style="rounded=0;orthogonalLoop=1;jettySize=auto;html=1;entryX=1;entryY=0.75;entryDx=0;entryDy=0;" edge="1" parent="1" source="l-PUMWSrgodT5HXm0ml5-5" target="Zmx-d6A7s9md1ERsDLhn-73">
          <mxGeometry relative="1" as="geometry" />
        </mxCell>
        <mxCell id="l-PUMWSrgodT5HXm0ml5-5" value="" style="rounded=1;whiteSpace=wrap;html=1;" vertex="1" parent="1">
          <mxGeometry x="8455" y="1730" width="320" height="190" as="geometry" />
        </mxCell>
        <mxCell id="l-PUMWSrgodT5HXm0ml5-6" value="사업장 등록 및 수정&lt;div&gt;승인&lt;/div&gt;" style="rounded=1;whiteSpace=wrap;html=1;dashed=1;" vertex="1" parent="1">
          <mxGeometry x="8475" y="1755" width="120" height="60" as="geometry" />
        </mxCell>
        <mxCell id="l-PUMWSrgodT5HXm0ml5-8" value="사업자등록번호" style="rounded=1;whiteSpace=wrap;html=1;" vertex="1" parent="1">
          <mxGeometry x="8625" y="1755" width="120" height="60" as="geometry" />
        </mxCell>
        <mxCell id="l-PUMWSrgodT5HXm0ml5-9" value="가게 정보" style="rounded=1;whiteSpace=wrap;html=1;" vertex="1" parent="1">
          <mxGeometry x="8625" y="1830" width="120" height="60" as="geometry" />
        </mxCell>
        <mxCell id="l-PUMWSrgodT5HXm0ml5-10" value="사업자 ID" style="rounded=1;whiteSpace=wrap;html=1;" vertex="1" parent="1">
          <mxGeometry x="8475" y="1840" width="120" height="60" as="geometry" />
        </mxCell>
        <mxCell id="l-PUMWSrgodT5HXm0ml5-15" style="rounded=0;orthogonalLoop=1;jettySize=auto;html=1;" edge="1" parent="1" source="l-PUMWSrgodT5HXm0ml5-12" target="l-PUMWSrgodT5HXm0ml5-6">
          <mxGeometry relative="1" as="geometry" />
        </mxCell>
        <mxCell id="l-PUMWSrgodT5HXm0ml5-33" style="rounded=0;orthogonalLoop=1;jettySize=auto;html=1;entryX=1;entryY=0.5;entryDx=0;entryDy=0;" edge="1" parent="1" source="l-PUMWSrgodT5HXm0ml5-12" target="l-PUMWSrgodT5HXm0ml5-27">
          <mxGeometry relative="1" as="geometry" />
        </mxCell>
        <mxCell id="l-PUMWSrgodT5HXm0ml5-48" style="rounded=0;orthogonalLoop=1;jettySize=auto;html=1;" edge="1" parent="1" source="l-PUMWSrgodT5HXm0ml5-12" target="l-PUMWSrgodT5HXm0ml5-38">
          <mxGeometry relative="1" as="geometry" />
        </mxCell>
        <mxCell id="l-PUMWSrgodT5HXm0ml5-12" value="어드민" style="shape=umlActor;verticalLabelPosition=bottom;verticalAlign=top;html=1;outlineConnect=0;" vertex="1" parent="1">
          <mxGeometry x="7900" y="1630" width="30" height="60" as="geometry" />
        </mxCell>
        <mxCell id="l-PUMWSrgodT5HXm0ml5-18" value="" style="rounded=1;whiteSpace=wrap;html=1;" vertex="1" parent="1">
          <mxGeometry x="8640" y="2380" width="280" height="160" as="geometry" />
        </mxCell>
        <mxCell id="l-PUMWSrgodT5HXm0ml5-19" value="사업자&lt;div&gt;마이 페이지&lt;/div&gt;" style="rounded=1;whiteSpace=wrap;html=1;dashed=1;" vertex="1" parent="1">
          <mxGeometry x="8650" y="2390" width="120" height="60" as="geometry" />
        </mxCell>
        <mxCell id="l-PUMWSrgodT5HXm0ml5-20" value="사업자&lt;div&gt;계정&amp;nbsp;&lt;span style=&quot;background-color: transparent; color: light-dark(rgb(0, 0, 0), rgb(255, 255, 255));&quot;&gt;정보&lt;/span&gt;&lt;/div&gt;" style="rounded=1;whiteSpace=wrap;html=1;" vertex="1" parent="1">
          <mxGeometry x="8790" y="2390" width="120" height="60" as="geometry" />
        </mxCell>
        <mxCell id="l-PUMWSrgodT5HXm0ml5-25" style="rounded=0;orthogonalLoop=1;jettySize=auto;html=1;" edge="1" parent="1" source="l-PUMWSrgodT5HXm0ml5-22" target="Zmx-d6A7s9md1ERsDLhn-45">
          <mxGeometry relative="1" as="geometry" />
        </mxCell>
        <mxCell id="l-PUMWSrgodT5HXm0ml5-22" value="매장 관리" style="rounded=1;whiteSpace=wrap;html=1;" vertex="1" parent="1">
          <mxGeometry x="8650" y="2467.5" width="120" height="60" as="geometry" />
        </mxCell>
        <mxCell id="l-PUMWSrgodT5HXm0ml5-24" style="rounded=0;orthogonalLoop=1;jettySize=auto;html=1;entryX=0.994;entryY=0.609;entryDx=0;entryDy=0;entryPerimeter=0;" edge="1" parent="1" source="Zmx-d6A7s9md1ERsDLhn-75" target="l-PUMWSrgodT5HXm0ml5-18">
          <mxGeometry relative="1" as="geometry" />
        </mxCell>
        <mxCell id="l-PUMWSrgodT5HXm0ml5-27" value="" style="rounded=1;whiteSpace=wrap;html=1;" vertex="1" parent="1">
          <mxGeometry x="7580" y="1770" width="140" height="150" as="geometry" />
        </mxCell>
        <mxCell id="l-PUMWSrgodT5HXm0ml5-28" value="칼럼 관리" style="rounded=1;whiteSpace=wrap;html=1;dashed=1;" vertex="1" parent="1">
          <mxGeometry x="7590" y="1780" width="120" height="60" as="geometry" />
        </mxCell>
        <mxCell id="l-PUMWSrgodT5HXm0ml5-36" style="rounded=0;orthogonalLoop=1;jettySize=auto;html=1;" edge="1" parent="1" source="l-PUMWSrgodT5HXm0ml5-29" target="Zmx-d6A7s9md1ERsDLhn-1">
          <mxGeometry relative="1" as="geometry" />
        </mxCell>
        <mxCell id="l-PUMWSrgodT5HXm0ml5-29" value="칼럼 CRUD" style="rounded=1;whiteSpace=wrap;html=1;" vertex="1" parent="1">
          <mxGeometry x="7590" y="1850" width="120" height="60" as="geometry" />
        </mxCell>
        <mxCell id="l-PUMWSrgodT5HXm0ml5-30" value="공지사항 게시" style="rounded=1;whiteSpace=wrap;html=1;" vertex="1" parent="1">
          <mxGeometry x="7460" y="1610" width="120" height="60" as="geometry" />
        </mxCell>
        <mxCell id="l-PUMWSrgodT5HXm0ml5-38" value="사용자 관리" style="rounded=1;whiteSpace=wrap;html=1;dashed=1;" vertex="1" parent="1">
          <mxGeometry x="7590" y="1610" width="120" height="60" as="geometry" />
        </mxCell>
        <mxCell id="l-PUMWSrgodT5HXm0ml5-39" value="사용자 차단" style="rounded=1;whiteSpace=wrap;html=1;" vertex="1" parent="1">
          <mxGeometry x="7590" y="1680" width="120" height="60" as="geometry" />
        </mxCell>
        <mxCell id="l-PUMWSrgodT5HXm0ml5-43" value="" style="rounded=1;whiteSpace=wrap;html=1;" vertex="1" parent="1">
          <mxGeometry x="7865" y="1780" width="140" height="150" as="geometry" />
        </mxCell>
        <mxCell id="l-PUMWSrgodT5HXm0ml5-44" value="리뷰 관리" style="rounded=1;whiteSpace=wrap;html=1;dashed=1;" vertex="1" parent="1">
          <mxGeometry x="7875" y="1790" width="120" height="60" as="geometry" />
        </mxCell>
        <mxCell id="l-PUMWSrgodT5HXm0ml5-47" style="rounded=0;orthogonalLoop=1;jettySize=auto;html=1;" edge="1" parent="1" source="l-PUMWSrgodT5HXm0ml5-45" target="Zmx-d6A7s9md1ERsDLhn-36">
          <mxGeometry relative="1" as="geometry" />
        </mxCell>
        <mxCell id="l-PUMWSrgodT5HXm0ml5-45" value="리뷰 CRUD" style="rounded=1;whiteSpace=wrap;html=1;" vertex="1" parent="1">
          <mxGeometry x="7875" y="1860" width="120" height="60" as="geometry" />
        </mxCell>
        <mxCell id="l-PUMWSrgodT5HXm0ml5-46" style="rounded=0;orthogonalLoop=1;jettySize=auto;html=1;entryX=0.371;entryY=0.005;entryDx=0;entryDy=0;entryPerimeter=0;" edge="1" parent="1" source="l-PUMWSrgodT5HXm0ml5-12" target="l-PUMWSrgodT5HXm0ml5-43">
          <mxGeometry relative="1" as="geometry" />
        </mxCell>
        <mxCell id="l-PUMWSrgodT5HXm0ml5-49" value="카카오 맵 등&amp;nbsp;&lt;div&gt;API 검색결과&lt;/div&gt;" style="ellipse;whiteSpace=wrap;html=1;" vertex="1" parent="1">
          <mxGeometry x="7360" y="3070" width="120" height="80" as="geometry" />
        </mxCell>
        <mxCell id="l-PUMWSrgodT5HXm0ml5-56" style="edgeStyle=orthogonalEdgeStyle;rounded=0;orthogonalLoop=1;jettySize=auto;html=1;" edge="1" parent="1" source="l-PUMWSrgodT5HXm0ml5-55" target="l-PUMWSrgodT5HXm0ml5-18">
          <mxGeometry relative="1" as="geometry">
            <Array as="points">
              <mxPoint x="8850" y="2560" />
              <mxPoint x="8780" y="2560" />
            </Array>
          </mxGeometry>
        </mxCell>
        <mxCell id="l-PUMWSrgodT5HXm0ml5-55" value="&lt;div&gt;&lt;span style=&quot;background-color: transparent; color: light-dark(rgb(0, 0, 0), rgb(255, 255, 255));&quot;&gt;정보 수정&lt;/span&gt;&lt;/div&gt;" style="rounded=1;whiteSpace=wrap;html=1;" vertex="1" parent="1">
          <mxGeometry x="8790" y="2470" width="120" height="60" as="geometry" />
        </mxCell>
        <mxCell id="l-PUMWSrgodT5HXm0ml5-57" value="" style="rounded=1;whiteSpace=wrap;html=1;" vertex="1" parent="1">
          <mxGeometry x="7580" y="2870" width="280" height="160" as="geometry" />
        </mxCell>
        <mxCell id="l-PUMWSrgodT5HXm0ml5-58" value="사용자&lt;div&gt;마이 페이지&lt;/div&gt;" style="rounded=1;whiteSpace=wrap;html=1;dashed=1;" vertex="1" parent="1">
          <mxGeometry x="7590" y="2880" width="120" height="60" as="geometry" />
        </mxCell>
        <mxCell id="l-PUMWSrgodT5HXm0ml5-59" value="사용자&lt;div&gt;계정&amp;nbsp;&lt;span style=&quot;background-color: transparent; color: light-dark(rgb(0, 0, 0), rgb(255, 255, 255));&quot;&gt;정보&lt;/span&gt;&lt;/div&gt;" style="rounded=1;whiteSpace=wrap;html=1;" vertex="1" parent="1">
          <mxGeometry x="7730" y="2880" width="120" height="60" as="geometry" />
        </mxCell>
        <mxCell id="l-PUMWSrgodT5HXm0ml5-60" value="코스 관리" style="rounded=1;whiteSpace=wrap;html=1;" vertex="1" parent="1">
          <mxGeometry x="7590" y="2957.5" width="120" height="60" as="geometry" />
        </mxCell>
        <mxCell id="l-PUMWSrgodT5HXm0ml5-61" style="edgeStyle=orthogonalEdgeStyle;rounded=0;orthogonalLoop=1;jettySize=auto;html=1;" edge="1" parent="1" source="l-PUMWSrgodT5HXm0ml5-62" target="l-PUMWSrgodT5HXm0ml5-57">
          <mxGeometry relative="1" as="geometry">
            <Array as="points">
              <mxPoint x="7790" y="3050" />
              <mxPoint x="7720" y="3050" />
            </Array>
          </mxGeometry>
        </mxCell>
        <mxCell id="l-PUMWSrgodT5HXm0ml5-62" value="&lt;div&gt;&lt;span style=&quot;background-color: transparent; color: light-dark(rgb(0, 0, 0), rgb(255, 255, 255));&quot;&gt;정보 수정&lt;/span&gt;&lt;/div&gt;" style="rounded=1;whiteSpace=wrap;html=1;" vertex="1" parent="1">
          <mxGeometry x="7730" y="2960" width="120" height="60" as="geometry" />
        </mxCell>
        <mxCell id="Zmx-d6A7s9md1ERsDLhn-140" style="edgeStyle=none;curved=1;rounded=0;orthogonalLoop=1;jettySize=auto;html=1;fontSize=12;startSize=8;endSize=8;" parent="1" source="Zmx-d6A7s9md1ERsDLhn-141" target="l-PUMWSrgodT5HXm0ml5-60" edge="1">
          <mxGeometry relative="1" as="geometry" />
        </mxCell>
        <mxCell id="l-PUMWSrgodT5HXm0ml5-66" value="코스 저장" style="edgeLabel;html=1;align=center;verticalAlign=middle;resizable=0;points=[];" vertex="1" connectable="0" parent="Zmx-d6A7s9md1ERsDLhn-140">
          <mxGeometry x="-0.1139" y="-1" relative="1" as="geometry">
            <mxPoint as="offset" />
          </mxGeometry>
        </mxCell>
      </root>
    </mxGraphModel>
  </diagram>
</mxfile>
